<svg
  width="45"
  height="44"
  viewBox="0 0 45 44"
  fill="none"
  xmlns="http://www.w3.org/2000/svg"
>
  <path
    d="M26.2389 17.3468C26.35 17.4761 26.5053 17.5595 26.6745 17.5806C26.8436 17.6018 27.0146 17.5592 27.1542 17.4612C28.4507 16.546 30.6625 15.0206 33.065 13.5143C34.8479 15.5203 36.019 17.9949 36.4399 20.6454C38.3276 17.9379 43.6664 10.9593 39.0712 7.46995C35.1433 4.55265 26.9063 13.2664 26.0864 16.7366C26.0597 16.843 26.0597 16.9544 26.0863 17.0608C26.1129 17.1672 26.1653 17.2655 26.2389 17.3468Z"
    fill="url(#paint0_linear_9928_44907)"
  />
  <path
    d="M29.4422 21.9803C29.3186 22.0435 29.2165 22.1416 29.1484 22.2626C29.0804 22.3835 29.0495 22.5218 29.0597 22.6602C29.0699 22.7986 29.1206 22.9309 29.2056 23.0406C29.2906 23.1503 29.4061 23.2325 29.5375 23.2769C31.0629 23.7345 33.637 24.5163 36.3064 25.4506C35.8511 28.1017 34.6394 30.5649 32.8171 32.5436C36.1157 32.3148 44.9058 32.1432 44.7913 26.3848C44.6197 21.5036 32.6836 20.474 29.4422 21.9803Z"
    fill="url(#paint1_linear_9928_44907)"
  />
  <path
    d="M27.421 27.8911C27.3229 27.8438 27.2154 27.8192 27.1064 27.8192C26.9975 27.8192 26.8899 27.8438 26.7918 27.8911C26.64 27.9725 26.5233 28.1066 26.4636 28.2682C26.4039 28.4298 26.4053 28.6076 26.4677 28.7682C27.0778 30.2364 28.0693 32.7532 28.9845 35.4227C24.9995 37.5773 21.2814 37.1006 21.2814 37.1006C23.4932 39.5412 29.099 46.3101 33.5416 42.6492C37.2407 39.4649 30.6243 29.4737 27.421 27.8911Z"
    fill="url(#paint2_linear_9928_44907)"
  />
  <path
    d="M21.5484 29.9695C21.5254 29.8635 21.4769 29.7646 21.4072 29.6816C21.3374 29.5985 21.2484 29.5337 21.148 29.4928C20.9901 29.4245 20.8124 29.418 20.65 29.4745C20.4876 29.531 20.3523 29.6464 20.2709 29.7979C19.4891 31.1707 18.1544 33.4969 16.629 35.8994C14.1503 34.8584 12.0249 33.1237 10.5084 30.9038C9.97456 34.1643 8.18223 42.7636 13.8071 43.9458C18.612 44.8801 22.292 33.4779 21.5484 29.9695Z"
    fill="url(#paint3_linear_9928_44907)"
  />
  <path
    d="M16.2667 26.6897C16.331 26.6035 16.3748 26.5037 16.3946 26.3979C16.4145 26.2922 16.4098 26.1833 16.3811 26.0796C16.3401 25.9108 16.2367 25.7638 16.0916 25.6683C15.9465 25.5727 15.7706 25.5357 15.5994 25.5648C14.0358 25.8126 11.3855 26.2131 8.56352 26.5181C7.84143 23.9317 7.87452 21.1926 8.65886 18.6243C5.7797 20.2259 -2.07601 24.1729 0.517139 29.321C2.76708 33.6493 13.9977 29.4545 16.2667 26.6897Z"
    fill="url(#paint4_linear_9928_44907)"
  />
  <path
    d="M15.5421 20.4929C15.6509 20.4955 15.7585 20.4706 15.8552 20.4206C15.9518 20.3706 16.0343 20.2971 16.0951 20.2069C16.2019 20.0736 16.2536 19.9044 16.2394 19.7341C16.2252 19.5638 16.1463 19.4055 16.0188 19.2917C14.8366 18.2239 12.8727 16.3935 10.8897 14.3723C12.4586 12.1915 14.6236 10.5099 17.1247 9.52924C14.0739 8.28987 6.08476 4.59082 3.66321 9.81525C1.68022 14.277 11.9765 20.4357 15.5421 20.4929Z"
    fill="url(#paint5_linear_9928_44907)"
  />
  <path
    d="M20.4996 16.3362C20.6739 16.3321 20.8405 16.2635 20.9673 16.1438C21.094 16.0241 21.172 15.8617 21.1861 15.6879C21.2814 14.1244 21.4911 11.4359 21.8343 8.63303C24.5141 8.49892 27.1757 9.14113 29.4994 10.4826C28.5842 7.31739 26.5058 -1.22475 20.9191 0.148095C16.1904 1.3684 17.754 13.2473 19.9467 16.0883C20.0105 16.1729 20.0947 16.2399 20.1914 16.2832C20.288 16.3265 20.3941 16.3448 20.4996 16.3362Z"
    fill="url(#paint6_linear_9928_44907)"
  />
  <defs>
    <linearGradient
      id="paint0_linear_9928_44907"
      x1="0.597459"
      y1="47.195"
      x2="52.9015"
      y2="39.2396"
      gradientUnits="userSpaceOnUse"
    >
      <stop stop-color="#4940E0" />
      <stop
        offset="1"
        stop-color="#A39DFF"
      />
    </linearGradient>
    <linearGradient
      id="paint1_linear_9928_44907"
      x1="0.597459"
      y1="47.195"
      x2="52.9015"
      y2="39.2396"
      gradientUnits="userSpaceOnUse"
    >
      <stop stop-color="#4940E0" />
      <stop
        offset="1"
        stop-color="#A39DFF"
      />
    </linearGradient>
    <linearGradient
      id="paint2_linear_9928_44907"
      x1="0.597459"
      y1="47.195"
      x2="52.9015"
      y2="39.2396"
      gradientUnits="userSpaceOnUse"
    >
      <stop stop-color="#4940E0" />
      <stop
        offset="1"
        stop-color="#A39DFF"
      />
    </linearGradient>
    <linearGradient
      id="paint3_linear_9928_44907"
      x1="0.597459"
      y1="47.195"
      x2="52.9015"
      y2="39.2396"
      gradientUnits="userSpaceOnUse"
    >
      <stop stop-color="#4940E0" />
      <stop
        offset="1"
        stop-color="#A39DFF"
      />
    </linearGradient>
    <linearGradient
      id="paint4_linear_9928_44907"
      x1="0.597459"
      y1="47.195"
      x2="52.9015"
      y2="39.2396"
      gradientUnits="userSpaceOnUse"
    >
      <stop stop-color="#4940E0" />
      <stop
        offset="1"
        stop-color="#A39DFF"
      />
    </linearGradient>
    <linearGradient
      id="paint5_linear_9928_44907"
      x1="0.597459"
      y1="47.195"
      x2="52.9015"
      y2="39.2396"
      gradientUnits="userSpaceOnUse"
    >
      <stop stop-color="#4940E0" />
      <stop
        offset="1"
        stop-color="#A39DFF"
      />
    </linearGradient>
    <linearGradient
      id="paint6_linear_9928_44907"
      x1="0.597459"
      y1="47.195"
      x2="52.9015"
      y2="39.2396"
      gradientUnits="userSpaceOnUse"
    >
      <stop stop-color="#4940E0" />
      <stop
        offset="1"
        stop-color="#A39DFF"
      />
    </linearGradient>
  </defs>
</svg>
