<svg width="1512" height="871" viewBox="0 0 1512 871" fill="none" xmlns="http://www.w3.org/2000/svg">
	<rect width="1512" height="871" fill="#0D0E11" />
	<mask id="mask0_106_148" style="mask-type:alpha" maskUnits="userSpaceOnUse" x="0" y="-99" width="1512" height="970">
		<rect y="-99" width="1512" height="970" fill="#0D1020" />
	</mask>
	<g mask="url(#mask0_106_148)">
		<g opacity="0.5">
			<path opacity="0.4" fill-rule="evenodd" clip-rule="evenodd" d="M61.0987 301.918L162.982 314.002C168.304 314.633 172.885 318.056 174.999 322.98L215.476 417.256C217.59 422.181 216.916 427.859 213.709 432.152L152.302 514.344C149.094 518.637 143.84 520.893 138.518 520.261L36.6345 508.177C31.3128 507.546 26.7321 504.124 24.6179 499.199L-15.8587 404.923C-17.9729 399.999 -17.2994 394.321 -14.0919 390.028L47.3153 307.836C50.5228 303.543 55.777 301.287 61.0987 301.918ZM46.5142 307.237C49.9356 302.658 55.54 300.252 61.2165 300.925L163.1 313.009C168.777 313.682 173.663 317.333 175.918 322.586L216.395 416.862C218.65 422.114 217.931 428.171 214.51 432.75L153.103 514.942C149.681 519.522 144.077 521.928 138.401 521.254L36.5167 509.17C30.8403 508.497 25.9542 504.846 23.699 499.594L-16.7776 405.318C-19.0327 400.065 -18.3143 394.008 -14.893 389.429L46.5142 307.237ZM17.2528 741.744L119.137 753.828C124.458 754.459 129.039 757.882 131.153 762.806L171.63 857.082C173.744 862.006 173.071 867.685 169.863 871.978L108.456 954.169C105.248 958.463 99.9941 960.718 94.6724 960.087L-7.21142 948.003C-12.5331 947.372 -17.1138 943.949 -19.228 939.025L-59.7046 844.749C-61.8188 839.825 -61.1453 834.146 -57.9378 829.853L3.46941 747.661C6.6769 743.368 11.9311 741.113 17.2528 741.744ZM2.66831 747.063C6.08962 742.484 11.6941 740.077 17.3705 740.751L119.254 752.835C124.931 753.508 129.817 757.159 132.072 762.411L172.549 856.688C174.804 861.94 174.085 867.997 170.664 872.576L109.257 954.768C105.836 959.347 100.231 961.754 94.5546 961.08L-7.3292 948.996C-13.0057 948.323 -17.8917 944.672 -20.1469 939.42L-60.6235 845.143C-62.8786 839.891 -62.1603 833.834 -58.7389 829.255L2.66831 747.063ZM216.878 656.037L318.762 668.121C324.083 668.752 328.664 672.174 330.778 677.099L371.255 771.375C373.369 776.299 372.696 781.977 369.488 786.271L308.081 868.462C304.873 872.755 299.619 875.011 294.297 874.38L192.414 862.296C187.092 861.665 182.511 858.242 180.397 853.318L139.92 759.042C137.806 754.117 138.48 748.439 141.687 744.146L203.094 661.954C206.302 657.661 211.556 655.405 216.878 656.037ZM202.293 661.356C205.715 656.776 211.319 654.37 216.996 655.044L318.879 667.128C324.556 667.801 329.442 671.452 331.697 676.704L372.174 770.98C374.429 776.233 373.711 782.29 370.289 786.869L308.882 869.061C305.461 873.64 299.856 876.046 294.18 875.373L192.296 863.289C186.619 862.616 181.733 858.965 179.478 853.712L139.002 759.436C136.746 754.184 137.465 748.127 140.886 743.548L202.293 661.356ZM518.384 582.416L416.5 570.332C411.178 569.701 405.924 571.957 402.716 576.25L341.309 658.442C338.102 662.735 337.428 668.413 339.542 673.337L380.019 767.613C382.133 772.538 386.714 775.96 392.036 776.591L493.919 788.676C499.241 789.307 504.495 787.051 507.703 782.758L569.11 700.566C572.317 696.273 572.991 690.595 570.877 685.67L530.4 591.394C528.286 586.47 523.705 583.048 518.384 582.416ZM416.618 569.339C410.941 568.666 405.337 571.072 401.915 575.651L340.508 657.843C337.087 662.422 336.368 668.479 338.623 673.732L379.1 768.008C381.355 773.26 386.241 776.911 391.918 777.584L493.802 789.669C499.478 790.342 505.083 787.936 508.504 783.356L569.911 701.164C573.332 696.585 574.051 690.528 571.796 685.276L531.319 591C529.064 585.747 524.178 582.097 518.501 581.423L416.618 569.339ZM239.96 437.739L341.844 449.824C347.166 450.455 351.746 453.877 353.86 458.802L394.337 553.078C396.451 558.002 395.778 563.68 392.57 567.973L331.163 650.165C327.956 654.458 322.701 656.714 317.38 656.083L215.496 643.999C210.174 643.367 205.593 639.945 203.479 635.021L163.003 540.745C160.888 535.82 161.562 530.142 164.769 525.849L226.177 443.657C229.384 439.364 234.638 437.108 239.96 437.739ZM225.376 443.059C228.797 438.479 234.401 436.073 240.078 436.746L341.962 448.831C347.638 449.504 352.524 453.155 354.779 458.407L395.256 552.683C397.511 557.936 396.793 563.993 393.371 568.572L331.964 650.764C328.543 655.343 322.938 657.749 317.262 657.076L215.378 644.992C209.702 644.318 204.816 640.668 202.56 635.415L162.084 541.139C159.829 535.887 160.547 529.83 163.968 525.251L225.376 443.059ZM40.3354 523.447L142.219 535.531C147.541 536.162 152.122 539.585 154.236 544.509L194.712 638.785C196.827 643.71 196.153 649.388 192.946 653.681L131.538 735.873C128.331 740.166 123.077 742.422 117.755 741.79L15.8712 729.706C10.5495 729.075 5.96886 725.653 3.85465 720.728L-36.6219 626.452C-38.7361 621.528 -38.0627 615.85 -34.8552 611.556L26.5521 529.365C29.7596 525.071 35.0137 522.816 40.3354 523.447ZM25.751 528.766C29.1723 524.187 34.7767 521.781 40.4532 522.454L142.337 534.538C148.014 535.211 152.9 538.862 155.155 544.114L195.631 638.391C197.886 643.643 197.168 649.7 193.747 654.279L132.34 736.471C128.918 741.05 123.314 743.457 117.637 742.783L15.7535 730.699C10.077 730.026 5.19092 726.375 2.93576 721.123L-37.5408 626.847C-39.796 621.594 -39.0776 615.537 -35.6563 610.958L25.751 528.766ZM96.0064 976.372L-5.87747 964.288C-11.1992 963.656 -16.4533 965.912 -19.6608 970.205L-81.0681 1052.4C-84.2756 1056.69 -84.949 1062.37 -82.8348 1067.29L-42.3583 1161.57C-40.2441 1166.49 -35.6634 1169.92 -30.3417 1170.55L71.5422 1182.63C76.8638 1183.26 82.118 1181.01 85.3255 1176.71L146.733 1094.52C149.94 1090.23 150.614 1084.55 148.5 1079.63L108.023 985.35C105.909 980.425 101.328 977.003 96.0064 976.372ZM-5.75969 963.295C-11.4361 962.621 -17.0406 965.028 -20.4619 969.607L-81.8692 1051.8C-85.2905 1056.38 -86.0089 1062.43 -83.7537 1067.69L-43.2772 1161.96C-41.022 1167.22 -36.1359 1170.87 -30.4595 1171.54L71.4244 1183.62C77.1008 1184.3 82.7053 1181.89 86.1266 1177.31L147.534 1095.12C150.955 1090.54 151.674 1084.48 149.418 1079.23L108.942 984.955C106.687 979.703 101.801 976.052 96.1242 975.379L-5.75969 963.295ZM295.629 890.668L193.745 878.584C188.424 877.952 183.169 880.208 179.962 884.501L118.555 966.693C115.347 970.986 114.674 976.665 116.788 981.589L157.264 1075.87C159.379 1080.79 163.959 1084.21 169.281 1084.84L271.165 1096.93C276.487 1097.56 281.741 1095.3 284.948 1091.01L346.355 1008.82C349.563 1004.52 350.236 998.846 348.122 993.922L307.646 899.646C305.531 894.722 300.951 891.299 295.629 890.668ZM193.863 877.591C188.187 876.917 182.582 879.324 179.161 883.903L117.754 966.095C114.332 970.674 113.614 976.731 115.869 981.983L156.346 1076.26C158.601 1081.51 163.487 1085.16 169.163 1085.84L271.047 1097.92C276.724 1098.59 282.328 1096.19 285.749 1091.61L347.157 1009.42C350.578 1004.84 351.296 998.78 349.041 993.527L308.565 899.251C306.309 893.999 301.423 890.348 295.747 889.675L193.863 877.591ZM393.37 792.876L495.254 804.961C500.575 805.592 505.156 809.014 507.27 813.938L547.747 908.215C549.861 913.139 549.188 918.817 545.98 923.11L484.573 1005.3C481.365 1009.6 476.111 1011.85 470.789 1011.22L368.906 999.135C363.584 998.504 359.003 995.082 356.889 990.158L316.413 895.881C314.298 890.957 314.972 885.279 318.179 880.986L379.587 798.794C382.794 794.501 388.048 792.245 393.37 792.876ZM378.785 798.196C382.207 793.616 387.811 791.21 393.488 791.883L495.372 803.968C501.048 804.641 505.934 808.291 508.189 813.544L548.666 907.82C550.921 913.073 550.202 919.129 546.781 923.709L485.374 1005.9C481.953 1010.48 476.348 1012.89 470.672 1012.21L368.788 1000.13C363.111 999.455 358.225 995.805 355.97 990.552L315.494 896.276C313.238 891.023 313.957 884.967 317.378 880.387L378.785 798.196ZM694.876 719.256L592.992 707.172C587.67 706.541 582.416 708.797 579.209 713.09L517.802 795.282C514.594 799.575 513.921 805.253 516.035 810.177L556.511 904.453C558.626 909.378 563.206 912.8 568.528 913.431L670.412 925.516C675.734 926.147 680.988 923.891 684.195 919.598L745.602 837.406C748.81 833.113 749.483 827.435 747.369 822.51L706.893 728.234C704.778 723.31 700.198 719.888 694.876 719.256ZM593.11 706.179C587.433 705.506 581.829 707.912 578.408 712.491L517 794.683C513.579 799.262 512.861 805.319 515.116 810.572L555.593 904.848C557.848 910.1 562.734 913.751 568.41 914.424L670.294 926.509C675.971 927.182 681.575 924.776 684.996 920.196L746.404 838.004C749.825 833.425 750.543 827.368 748.288 822.116L707.812 727.84C705.556 722.587 700.67 718.937 694.994 718.263L593.11 706.179Z" fill="url(#paint0_radial_106_148)" fill-opacity="0.6" />
			<path opacity="0.34" fill-rule="evenodd" clip-rule="evenodd" d="M1451.58 301.918L1349.7 314.002C1344.37 314.633 1339.79 318.056 1337.68 322.98L1297.2 417.256C1295.09 422.181 1295.76 427.859 1298.97 432.152L1360.38 514.344C1363.58 518.637 1368.84 520.893 1374.16 520.261L1476.04 508.177C1481.36 507.546 1485.95 504.124 1488.06 499.199L1528.54 404.923C1530.65 399.999 1529.98 394.321 1526.77 390.028L1465.36 307.836C1462.15 303.543 1456.9 301.287 1451.58 301.918ZM1466.16 307.237C1462.74 302.658 1457.14 300.252 1451.46 300.925L1349.58 313.009C1343.9 313.682 1339.01 317.333 1336.76 322.586L1296.28 416.862C1294.03 422.114 1294.75 428.171 1298.17 432.75L1359.57 514.942C1363 519.522 1368.6 521.928 1374.28 521.254L1476.16 509.17C1481.84 508.497 1486.72 504.846 1488.98 499.594L1529.46 405.318C1531.71 400.065 1530.99 394.008 1527.57 389.429L1466.16 307.237ZM1495.42 741.744L1393.54 753.828C1388.22 754.459 1383.64 757.882 1381.52 762.806L1341.05 857.082C1338.93 862.006 1339.61 867.685 1342.81 871.978L1404.22 954.169C1407.43 958.463 1412.68 960.718 1418.01 960.087L1519.89 948.003C1525.21 947.372 1529.79 943.949 1531.91 939.025L1572.38 844.749C1574.5 839.825 1573.82 834.146 1570.62 829.853L1509.21 747.661C1506 743.368 1500.75 741.113 1495.42 741.744ZM1510.01 747.063C1506.59 742.484 1500.98 740.077 1495.31 740.751L1393.42 752.835C1387.75 753.508 1382.86 757.159 1380.61 762.411L1340.13 856.688C1337.87 861.94 1338.59 867.997 1342.01 872.576L1403.42 954.768C1406.84 959.347 1412.45 961.754 1418.12 961.08L1520.01 948.996C1525.68 948.323 1530.57 944.672 1532.82 939.42L1573.3 845.143C1575.56 839.891 1574.84 833.834 1571.42 829.255L1510.01 747.063ZM1295.8 656.037L1193.92 668.121C1188.59 668.752 1184.01 672.174 1181.9 677.099L1141.42 771.375C1139.31 776.299 1139.98 781.977 1143.19 786.271L1204.6 868.462C1207.8 872.755 1213.06 875.011 1218.38 874.38L1320.26 862.296C1325.59 861.665 1330.17 858.242 1332.28 853.318L1372.76 759.042C1374.87 754.117 1374.2 748.439 1370.99 744.146L1309.58 661.954C1306.38 657.661 1301.12 655.405 1295.8 656.037ZM1310.38 661.356C1306.96 656.776 1301.36 654.37 1295.68 655.044L1193.8 667.128C1188.12 667.801 1183.24 671.452 1180.98 676.704L1140.5 770.98C1138.25 776.233 1138.97 782.29 1142.39 786.869L1203.8 869.061C1207.22 873.64 1212.82 876.046 1218.5 875.373L1320.38 863.289C1326.06 862.616 1330.94 858.965 1333.2 853.712L1373.68 759.436C1375.93 754.184 1375.21 748.127 1371.79 743.548L1310.38 661.356ZM994.294 582.416L1096.18 570.332C1101.5 569.701 1106.75 571.957 1109.96 576.25L1171.37 658.442C1174.58 662.735 1175.25 668.413 1173.14 673.337L1132.66 767.613C1130.54 772.538 1125.96 775.96 1120.64 776.591L1018.76 788.676C1013.44 789.307 1008.18 787.051 1004.97 782.758L943.568 700.566C940.36 696.273 939.687 690.595 941.801 685.67L982.278 591.394C984.392 586.47 988.972 583.048 994.294 582.416ZM1096.06 569.339C1101.74 568.666 1107.34 571.072 1110.76 575.651L1172.17 657.843C1175.59 662.422 1176.31 668.479 1174.05 673.732L1133.58 768.008C1131.32 773.26 1126.44 776.911 1120.76 777.584L1018.88 789.669C1013.2 790.342 1007.6 787.936 1004.17 783.356L942.767 701.164C939.345 696.585 938.627 690.528 940.882 685.276L981.359 591C983.614 585.747 988.5 582.097 994.176 581.423L1096.06 569.339ZM1272.72 437.739L1170.83 449.824C1165.51 450.455 1160.93 453.877 1158.82 458.802L1118.34 553.078C1116.23 558.002 1116.9 563.68 1120.11 567.973L1181.51 650.165C1184.72 654.458 1189.98 656.714 1195.3 656.083L1297.18 643.999C1302.5 643.367 1307.08 639.945 1309.2 635.021L1349.68 540.745C1351.79 535.82 1351.12 530.142 1347.91 525.849L1286.5 443.657C1283.29 439.364 1278.04 437.108 1272.72 437.739ZM1287.3 443.059C1283.88 438.479 1278.28 436.073 1272.6 436.746L1170.72 448.831C1165.04 449.504 1160.15 453.155 1157.9 458.407L1117.42 552.683C1115.17 557.936 1115.88 563.993 1119.31 568.572L1180.71 650.764C1184.13 655.343 1189.74 657.749 1195.42 657.076L1297.3 644.992C1302.98 644.318 1307.86 640.668 1310.12 635.415L1350.59 541.139C1352.85 535.887 1352.13 529.83 1348.71 525.251L1287.3 443.059ZM1472.34 523.447L1370.46 535.531C1365.14 536.162 1360.56 539.585 1358.44 544.509L1317.97 638.785C1315.85 643.71 1316.52 649.388 1319.73 653.681L1381.14 735.873C1384.35 740.166 1389.6 742.422 1394.92 741.79L1496.81 729.706C1502.13 729.075 1506.71 725.653 1508.82 720.728L1549.3 626.452C1551.41 621.528 1550.74 615.85 1547.53 611.556L1486.13 529.365C1482.92 525.071 1477.66 522.816 1472.34 523.447ZM1486.93 528.766C1483.51 524.187 1477.9 521.781 1472.22 522.454L1370.34 534.538C1364.66 535.211 1359.78 538.862 1357.52 544.114L1317.05 638.391C1314.79 643.643 1315.51 649.7 1318.93 654.279L1380.34 736.471C1383.76 741.05 1389.36 743.457 1395.04 742.783L1496.92 730.699C1502.6 730.026 1507.49 726.375 1509.74 721.123L1550.22 626.847C1552.47 621.594 1551.76 615.537 1548.33 610.958L1486.93 528.766ZM1416.67 976.372L1518.56 964.288C1523.88 963.656 1529.13 965.912 1532.34 970.205L1593.75 1052.4C1596.95 1056.69 1597.63 1062.37 1595.51 1067.29L1555.04 1161.57C1552.92 1166.49 1548.34 1169.92 1543.02 1170.55L1441.14 1182.63C1435.81 1183.26 1430.56 1181.01 1427.35 1176.71L1365.94 1094.52C1362.74 1090.23 1362.06 1084.55 1364.18 1079.63L1404.65 985.35C1406.77 980.425 1411.35 977.003 1416.67 976.372ZM1518.44 963.295C1524.11 962.621 1529.72 965.028 1533.14 969.607L1594.55 1051.8C1597.97 1056.38 1598.69 1062.43 1596.43 1067.69L1555.95 1161.96C1553.7 1167.22 1548.81 1170.87 1543.14 1171.54L1441.25 1183.62C1435.58 1184.3 1429.97 1181.89 1426.55 1177.31L1365.14 1095.12C1361.72 1090.54 1361 1084.48 1363.26 1079.23L1403.74 984.955C1405.99 979.703 1410.88 976.052 1416.55 975.379L1518.44 963.295ZM1217.05 890.668L1318.93 878.584C1324.25 877.952 1329.51 880.208 1332.72 884.501L1394.12 966.693C1397.33 970.986 1398 976.665 1395.89 981.589L1355.41 1075.87C1353.3 1080.79 1348.72 1084.21 1343.4 1084.84L1241.51 1096.93C1236.19 1097.56 1230.94 1095.3 1227.73 1091.01L1166.32 1008.82C1163.11 1004.52 1162.44 998.846 1164.56 993.922L1205.03 899.646C1207.15 894.722 1211.73 891.299 1217.05 890.668ZM1318.81 877.591C1324.49 876.917 1330.1 879.324 1333.52 883.903L1394.92 966.095C1398.35 970.674 1399.06 976.731 1396.81 981.983L1356.33 1076.26C1354.08 1081.51 1349.19 1085.16 1343.51 1085.84L1241.63 1097.92C1235.95 1098.59 1230.35 1096.19 1226.93 1091.61L1165.52 1009.42C1162.1 1004.84 1161.38 998.78 1163.64 993.527L1204.11 899.251C1206.37 893.999 1211.25 890.348 1216.93 889.675L1318.81 877.591ZM1119.31 792.876L1017.42 804.961C1012.1 805.592 1007.52 809.014 1005.41 813.938L964.931 908.215C962.817 913.139 963.49 918.817 966.698 923.11L1028.1 1005.3C1031.31 1009.6 1036.57 1011.85 1041.89 1011.22L1143.77 999.135C1149.09 998.504 1153.67 995.082 1155.79 990.158L1196.27 895.881C1198.38 890.957 1197.71 885.279 1194.5 880.986L1133.09 798.794C1129.88 794.501 1124.63 792.245 1119.31 792.876ZM1133.89 798.196C1130.47 793.616 1124.87 791.21 1119.19 791.883L1017.31 803.968C1011.63 804.641 1006.74 808.291 1004.49 813.544L964.012 907.82C961.757 913.073 962.475 919.129 965.896 923.709L1027.3 1005.9C1030.73 1010.48 1036.33 1012.89 1042.01 1012.21L1143.89 1000.13C1149.57 999.455 1154.45 995.805 1156.71 990.552L1197.18 896.276C1199.44 891.023 1198.72 884.967 1195.3 880.387L1133.89 798.196ZM817.802 719.256L919.686 707.172C925.007 706.541 930.261 708.797 933.469 713.09L994.876 795.282C998.084 799.575 998.757 805.253 996.643 810.177L956.166 904.453C954.052 909.378 949.471 912.8 944.15 913.431L842.266 925.516C836.944 926.147 831.69 923.891 828.483 919.598L767.075 837.406C763.868 833.113 763.194 827.435 765.308 822.51L805.785 728.234C807.899 723.31 812.48 719.888 817.802 719.256ZM919.568 706.179C925.244 705.506 930.849 707.912 934.27 712.491L995.677 794.683C999.099 799.262 999.817 805.319 997.562 810.572L957.085 904.848C954.83 910.1 949.944 913.751 944.268 914.424L842.384 926.509C836.707 927.182 831.103 924.776 827.681 920.196L766.274 838.004C762.853 833.425 762.134 827.368 764.39 822.116L804.866 727.84C807.121 722.587 812.007 718.937 817.684 718.263L919.568 706.179Z" fill="url(#paint1_radial_106_148)" fill-opacity="0.6" />
		</g>
		<g opacity="0.2" filter="url(#filter0_f_106_148)">
			<circle cx="1552.5" cy="973.5" r="443.5" fill="url(#paint2_linear_106_148)" />
		</g>
		<g opacity="0.2" filter="url(#filter1_f_106_148)">
			<circle cx="19.5" cy="973.5" r="443.5" fill="url(#paint3_linear_106_148)" />
		</g>
	</g>
	<defs>
		<filter id="filter0_f_106_148" x="749" y="170" width="1607" height="1607" filterUnits="userSpaceOnUse" color-interpolation-filters="sRGB">
			<feFlood flood-opacity="0" result="BackgroundImageFix" />
			<feBlend mode="normal" in="SourceGraphic" in2="BackgroundImageFix" result="shape" />
			<feGaussianBlur stdDeviation="180" result="effect1_foregroundBlur_106_148" />
		</filter>
		<filter id="filter1_f_106_148" x="-784" y="170" width="1607" height="1607" filterUnits="userSpaceOnUse" color-interpolation-filters="sRGB">
			<feFlood flood-opacity="0" result="BackgroundImageFix" />
			<feBlend mode="normal" in="SourceGraphic" in2="BackgroundImageFix" result="shape" />
			<feGaussianBlur stdDeviation="180" result="effect1_foregroundBlur_106_148" />
		</filter>
		<radialGradient id="paint0_radial_106_148" cx="0" cy="0" r="1" gradientUnits="userSpaceOnUse" gradientTransform="translate(163.965 147.2) rotate(78.1045) scale(1234.51 2728.68)">
			<stop stop-color="#EAD1CA" />
			<stop offset="0.255208" stop-color="#DED1CC" stop-opacity="0.08" />
			<stop offset="0.666667" stop-color="#CBD1CF" />
			<stop offset="1" stop-color="#B5D0E7" stop-opacity="0.24" />
		</radialGradient>
		<radialGradient id="paint1_radial_106_148" cx="0" cy="0" r="1" gradientUnits="userSpaceOnUse" gradientTransform="translate(1348.71 147.2) rotate(101.896) scale(1234.51 2728.68)">
			<stop stop-color="#EAD1CA" />
			<stop offset="0.255208" stop-color="#DED1CC" stop-opacity="0.08" />
			<stop offset="0.666667" stop-color="#CBD1CF" />
			<stop offset="1" stop-color="#B5D0E7" stop-opacity="0.24" />
		</radialGradient>
		<linearGradient id="paint2_linear_106_148" x1="1120.83" y1="1481.41" x2="2157.4" y2="1326.54" gradientUnits="userSpaceOnUse">
			<stop stop-color="#4940E0" />
			<stop offset="1" stop-color="#A39DFF" />
		</linearGradient>
		<linearGradient id="paint3_linear_106_148" x1="-412.169" y1="1481.41" x2="624.4" y2="1326.54" gradientUnits="userSpaceOnUse">
			<stop stop-color="#4940E0" />
			<stop offset="1" stop-color="#A39DFF" />
		</linearGradient>
	</defs>
</svg>
