<svg
  fill="none"
  xmlns="http://www.w3.org/2000/svg"
  viewBox="0 0 100 26"
>
  <path
    d="M14.797 11.863a4.95 4.95 0 0 1 2.357-4.152 5.066 5.066 0 0 0-3.991-2.158C11.483 5.377 9.856 6.558 9 6.558c-.872 0-2.19-.987-3.609-.958A5.315 5.315 0 0 0 .918 8.328c-1.934 3.348-.491 8.27 1.362 10.976.926 1.325 2.01 2.806 3.427 2.753 1.387-.057 1.905-.884 3.58-.884 1.658 0 2.144.884 3.59.85 1.489-.023 2.427-1.33 3.321-2.668a10.963 10.963 0 0 0 1.519-3.093 4.781 4.781 0 0 1-2.92-4.4Zm-2.73-8.089A4.873 4.873 0 0 0 13.18.284a4.958 4.958 0 0 0-3.207 1.659A4.636 4.636 0 0 0 8.83 5.304a4.099 4.099 0 0 0 3.237-1.53Zm20.261 14.928h-4.733l-1.137 3.357h-2.005L28.936 9.64h2.084l4.483 12.418h-2.04l-1.135-3.357Zm-4.243-1.549h3.752l-1.85-5.447h-.051l-1.851 5.447Zm17.1.379c0 2.813-1.506 4.621-3.779 4.621a3.068 3.068 0 0 1-2.848-1.584h-.043v4.484h-1.859V13.005h1.8v1.505h.033a3.21 3.21 0 0 1 2.883-1.6c2.298 0 3.813 1.816 3.813 4.622Zm-1.91 0c0-1.833-.948-3.038-2.393-3.038-1.42 0-2.375 1.23-2.375 3.038 0 1.824.955 3.046 2.375 3.046 1.445 0 2.392-1.196 2.392-3.046Zm11.878 0c0 2.813-1.505 4.621-3.778 4.621a3.07 3.07 0 0 1-2.849-1.584h-.043v4.484h-1.858V13.005h1.799v1.505h.034a3.212 3.212 0 0 1 2.883-1.6c2.298 0 3.812 1.816 3.812 4.622Zm-1.91 0c0-1.833-.947-3.038-2.392-3.038-1.42 0-2.375 1.23-2.375 3.038 0 1.824.955 3.046 2.375 3.046 1.445 0 2.392-1.196 2.392-3.046Zm8.487 1.067c.138 1.231 1.335 2.04 2.97 2.04 1.566 0 2.693-.809 2.693-1.92 0-.963-.68-1.54-2.29-1.936l-1.609-.388c-2.28-.55-3.339-1.617-3.339-3.347 0-2.143 1.867-3.614 4.519-3.614 2.624 0 4.423 1.471 4.483 3.614h-1.876c-.112-1.24-1.137-1.987-2.634-1.987-1.497 0-2.521.756-2.521 1.858 0 .878.654 1.394 2.255 1.79l1.368.336c2.548.602 3.607 1.626 3.607 3.442 0 2.324-1.851 3.779-4.794 3.779-2.754 0-4.614-1.421-4.734-3.667h1.902Zm11.641-7.736v2.143h1.722v1.471H73.37v4.992c0 .775.345 1.136 1.102 1.136.204-.003.408-.017.611-.043v1.463a5.03 5.03 0 0 1-1.032.086c-1.833 0-2.548-.688-2.548-2.444v-5.19h-1.317v-1.471h1.317v-2.143h1.867Zm2.723 6.67c0-2.848 1.678-4.639 4.294-4.639 2.625 0 4.295 1.79 4.295 4.64 0 2.856-1.662 4.638-4.295 4.638s-4.294-1.782-4.294-4.639Zm6.695 0c0-1.954-.895-3.107-2.401-3.107-1.506 0-2.4 1.162-2.4 3.107 0 1.962.894 3.107 2.4 3.107 1.505 0 2.401-1.145 2.401-3.107Zm3.421-4.528h1.773v1.54h.043a2.16 2.16 0 0 1 2.178-1.635c.214-.001.428.022.637.07v1.737a2.597 2.597 0 0 0-.835-.112 1.872 1.872 0 0 0-1.937 2.083v5.37h-1.858v-9.053Zm13.2 6.395c-.25 1.644-1.851 2.772-3.9 2.772-2.633 0-4.268-1.765-4.268-4.596 0-2.84 1.644-4.681 4.19-4.681 2.505 0 4.08 1.72 4.08 4.465v.637h-6.394v.112a2.36 2.36 0 0 0 2.436 2.565 2.048 2.048 0 0 0 2.09-1.274h1.765Zm-6.283-2.702h4.526a2.176 2.176 0 0 0-2.22-2.298 2.292 2.292 0 0 0-2.306 2.298ZM27.858.294a2.64 2.64 0 0 1 2.808 2.965c0 1.906-1.03 3.002-2.808 3.002h-2.155V.294h2.155ZM26.63 5.417h1.125a1.876 1.876 0 0 0 1.968-2.146 1.88 1.88 0 0 0-1.968-2.134H26.63v4.28Zm5.083-1.409a2.132 2.132 0 1 1 4.247 0 2.133 2.133 0 1 1-4.247 0Zm3.333 0c0-.976-.438-1.547-1.208-1.547-.772 0-1.207.571-1.207 1.547 0 .984.435 1.55 1.207 1.55.77 0 1.208-.57 1.208-1.55Zm6.559 2.252h-.921l-.931-3.316h-.07l-.927 3.317h-.913l-1.241-4.503h.9l.808 3.436h.066l.926-3.436h.852l.926 3.436h.07l.803-3.436h.889L41.606 6.26Zm2.285-4.503h.856v.716h.066a1.349 1.349 0 0 1 1.344-.803 1.464 1.464 0 0 1 1.559 1.675V6.26h-.889V3.568c0-.723-.314-1.083-.971-1.083a1.033 1.033 0 0 0-1.076 1.141V6.26h-.888V1.757ZM49.125 0h.889v6.26h-.889V0Zm2.119 4.008a2.134 2.134 0 1 1 4.248 0 2.134 2.134 0 1 1-4.248 0Zm3.333 0c0-.976-.438-1.547-1.208-1.547-.772 0-1.207.571-1.207 1.547 0 .984.435 1.55 1.207 1.55.77 0 1.208-.57 1.208-1.55Zm1.861.98c0-.81.603-1.278 1.674-1.344l1.22-.07v-.389c0-.476-.314-.744-.922-.744-.496 0-.84.182-.938.5h-.86c.09-.773.818-1.27 1.84-1.27 1.128 0 1.765.563 1.765 1.514v3.077h-.856v-.633h-.07a1.515 1.515 0 0 1-1.352.707 1.36 1.36 0 0 1-1.502-1.348Zm2.894-.384v-.377l-1.1.07c-.62.042-.901.253-.901.65 0 .405.352.64.835.64a1.062 1.062 0 0 0 1.166-.983Zm2.043-.597c0-1.423.731-2.324 1.87-2.324a1.484 1.484 0 0 1 1.38.79h.066V0h.89v6.26h-.853v-.71h-.07a1.563 1.563 0 0 1-1.414.785c-1.145 0-1.869-.901-1.869-2.328Zm.918 0c0 .955.45 1.53 1.203 1.53.75 0 1.212-.583 1.212-1.526 0-.938-.468-1.53-1.212-1.53-.748 0-1.203.58-1.203 1.526Zm6.967.001a2.134 2.134 0 1 1 4.247 0 2.133 2.133 0 1 1-4.247 0Zm3.333 0c0-.976-.438-1.547-1.208-1.547-.772 0-1.207.571-1.207 1.547 0 .984.435 1.55 1.207 1.55.77 0 1.208-.57 1.208-1.55Zm2.11-2.251h.856v.716h.066a1.349 1.349 0 0 1 1.344-.803 1.464 1.464 0 0 1 1.558 1.675V6.26h-.888V3.568c0-.723-.315-1.083-.972-1.083a1.033 1.033 0 0 0-1.075 1.141V6.26h-.889V1.757Zm8.839-1.12v1.141h.976v.749h-.976v2.315c0 .472.194.679.637.679.113 0 .226-.008.339-.021v.74c-.16.029-.322.044-.484.046-.988 0-1.382-.348-1.382-1.216V2.527h-.715v-.749h.715V.637h.89ZM85.734 0h.881v2.481h.07a1.386 1.386 0 0 1 1.373-.806 1.484 1.484 0 0 1 1.551 1.679V6.26h-.89V3.573c0-.72-.334-1.084-.962-1.084a1.052 1.052 0 0 0-1.134 1.142v2.63h-.889V0Zm9.059 5.046a1.828 1.828 0 0 1-1.952 1.303 2.045 2.045 0 0 1-2.08-2.325 2.077 2.077 0 0 1 2.077-2.352c1.253 0 2.008.856 2.008 2.27v.31h-3.18v.05a1.19 1.19 0 0 0 1.2 1.29 1.08 1.08 0 0 0 1.071-.546h.856Zm-3.126-1.451h2.274a1.086 1.086 0 0 0-1.108-1.167 1.152 1.152 0 0 0-1.166 1.167Z"
    fill="#fff"
  />
</svg>
