<svg width="246" height="20" viewBox="0 0 246 20" fill="none" xmlns="http://www.w3.org/2000/svg">
  <path d="M19.2105 6.10774C18.7063 4.91616 17.9857 3.84826 17.0678 2.93019C16.1498 2.01213 15.0797 1.29147 13.8906 0.787252C12.6564 0.264003 11.3484 0 9.99762 0C8.64923 0 7.33888 0.264003 6.10464 0.787252C4.9132 1.29147 3.84542 2.01213 2.92747 2.93019C2.00951 3.84826 1.28894 4.91854 0.78478 6.10774C0.263972 7.33975 0 8.65026 0 9.99881C0 11.3474 0.263971 12.6579 0.787158 13.8923C1.29132 15.0838 2.01189 16.1517 2.92985 17.0698C3.8478 17.9879 4.91795 18.7085 6.10702 19.2127C7.34126 19.7336 8.64923 20 10 20C11.3484 20 12.6587 19.736 13.893 19.2127C15.0844 18.7085 16.1522 17.9879 17.0702 17.0698C17.9881 16.1517 18.7087 15.0815 19.2128 13.8923C19.7337 12.6579 20 11.3497 20 9.99881C19.9976 8.65026 19.7313 7.33975 19.2105 6.10774ZM6.67776 9.05934C7.09394 7.46105 8.54935 6.27899 10.2782 6.27899H17.22C17.6671 7.14235 17.9524 8.08182 18.0642 9.05934H6.67776ZM18.0642 10.9383C17.9524 11.9158 17.6647 12.8553 17.22 13.7186H10.2782C8.55173 13.7186 7.09631 12.5366 6.67776 10.9383H18.0642ZM4.25684 4.25734C5.79073 2.72327 7.82877 1.87894 9.99762 1.87894C12.1665 1.87894 14.2045 2.72327 15.7384 4.25734C15.786 4.30491 15.8312 4.35248 15.8763 4.40005H10.2782C8.7824 4.40005 7.37693 4.98276 6.31867 6.04115C5.48633 6.87359 4.94887 7.92246 4.75624 9.06172H1.93341C2.14031 7.247 2.94649 5.56784 4.25684 4.25734ZM9.99762 18.1211C7.82877 18.1211 5.79073 17.2767 4.25684 15.7427C2.94649 14.4322 2.14031 12.753 1.93341 10.9407H4.75624C4.94649 12.0799 5.48633 13.1288 6.31867 13.9612C7.37693 15.0196 8.7824 15.6023 10.2782 15.6023H15.8787C15.8335 15.6499 15.786 15.6975 15.7408 15.745C14.2069 17.2743 12.1665 18.1211 9.99762 18.1211Z" fill="white"/>
  <path d="M45.0013 6.15541C47.1191 6.15541 48.8486 7.88371 48.8486 10C48.8486 12.1163 47.1191 13.8446 45.0013 13.8446C42.8835 13.8446 41.154 12.1163 41.154 10C41.154 7.88371 42.8659 6.15541 45.0013 6.15541ZM45.0013 4.30366C41.8599 4.30366 39.301 6.86084 39.301 10C39.301 13.1392 41.8599 15.6963 45.0013 15.6963C48.1427 15.6963 50.7017 13.1392 50.7017 10C50.7017 6.84321 48.1427 4.30366 45.0013 4.30366Z" fill="white"/>
  <path d="M100.222 6.15541C102.34 6.15541 104.07 7.88371 104.07 10C104.07 12.1163 102.34 13.8446 100.222 13.8446C98.1046 13.8446 96.3751 12.1163 96.3751 10C96.3751 7.88371 98.1046 6.15541 100.222 6.15541ZM100.222 4.30366C97.081 4.30366 94.522 6.86084 94.522 10C94.522 13.1392 97.081 15.6963 100.222 15.6963C103.364 15.6963 105.923 13.1392 105.923 10C105.923 6.84321 103.381 4.30366 100.222 4.30366Z" fill="white"/>
  <path d="M91.6278 11.3227C91.0807 12.8041 89.6688 13.8446 88.0099 13.8446C85.8921 13.8446 84.1626 12.1163 84.1626 10C84.1626 7.88371 85.8921 6.15541 88.0099 6.15541C89.6688 6.15541 91.0807 7.21356 91.6278 8.67732H93.5514C92.969 6.17305 90.71 4.30366 88.0099 4.30366C84.8685 4.30366 82.3095 6.86084 82.3095 10C82.3095 13.1392 84.8685 15.6963 88.0099 15.6963C90.71 15.6963 92.969 13.827 93.5514 11.3227H91.6278Z" fill="white"/>
  <path d="M75.6385 6.33176C77.7034 6.33176 79.3799 8.06006 79.3093 10.1411C79.2387 12.1339 77.5445 13.6682 75.5503 13.6682H73.5207V6.33176H75.6385ZM75.6385 4.48001H71.6677V15.52H75.6385C78.6917 15.52 81.1624 13.051 81.1624 9.99999C81.1624 6.94901 78.6917 4.48001 75.6385 4.48001Z" fill="white"/>
  <path d="M109.135 4.49764H107.282V15.5023H109.135V4.49764Z" fill="white"/>
  <path d="M29.418 15.5553L31.5181 7.46046L33.6182 15.5553H36.1596L39.0362 4.44475H37.1302L34.8889 13.0686L32.6476 4.44475H30.3886L28.1473 13.0686L25.906 4.44475H24L26.8766 15.5553H29.418Z" fill="white"/>
  <path d="M112.841 7.67208L118.453 15.5023H120.306V4.49765H118.453V12.3279L112.841 4.48001H112.7L112.682 4.49765H110.988V15.5023H112.841V7.67208Z" fill="white"/>
  <path d="M64.432 4.49764H62.5789V15.5023H70.3088V13.6506H64.432V4.49764Z" fill="white"/>
  <path d="M59.0139 10.97C60.1434 10.4056 60.9199 9.25933 60.9199 7.91901C60.9199 6.03199 59.3846 4.51532 57.5139 4.51532H52.1135V15.52H54.0195V11.3227H55.0784C57.3374 11.3933 59.1375 13.2274 59.1375 15.5024H61.0435C61.0611 13.7035 60.267 12.081 59.0139 10.97ZM54.0195 9.41805V6.40234H57.5139C58.3433 6.40234 59.0139 7.0725 59.0139 7.90138C59.0139 8.73026 58.3433 9.41805 57.5139 9.41805H54.0195Z" fill="white"/>
  <path d="M175.767 4.19261H181.433C182.799 4.19261 183.954 4.4057 184.899 4.83188C185.769 5.19769 186.508 5.81858 187.018 6.6127C187.496 7.3972 187.741 8.3013 187.724 9.21959C187.735 10.1421 187.48 11.0483 186.991 11.8306C186.446 12.6571 185.666 13.3018 184.752 13.682C183.75 14.1386 182.508 14.3663 181.026 14.3649H175.767V4.19261ZM180.968 11.7767C181.888 11.7767 182.595 11.547 183.089 11.0876C183.34 10.8447 183.536 10.5511 183.663 10.2264C183.791 9.90174 183.848 9.55352 183.83 9.20506C183.846 8.8816 183.795 8.55839 183.682 8.25509C183.568 7.9518 183.394 7.67476 183.17 7.44085C182.728 7.00083 182.061 6.78013 181.172 6.77875H179.399V11.7767H180.968Z" fill="white"/>
  <path d="M196.209 14.3483C195.461 14.161 194.746 13.8622 194.088 13.462V11.0502C194.663 11.4684 195.31 11.7767 195.997 11.9593C196.749 12.1887 197.53 12.3082 198.316 12.3142C198.587 12.3287 198.858 12.2819 199.108 12.1773C199.287 12.0859 199.376 11.9697 199.376 11.8493C199.378 11.7821 199.366 11.7151 199.341 11.6526C199.316 11.5902 199.279 11.5335 199.231 11.4861C199.065 11.3586 198.871 11.2738 198.664 11.2391L196.921 10.8468C195.922 10.6144 195.213 10.2927 194.793 9.88169C194.583 9.66941 194.419 9.41569 194.312 9.13664C194.205 8.85758 194.157 8.55929 194.171 8.26069C194.164 7.71954 194.361 7.19561 194.723 6.79328C195.152 6.3393 195.693 6.00641 196.292 5.82815C197.062 5.58596 197.867 5.4703 198.675 5.48568C199.429 5.4786 200.18 5.56646 200.912 5.7472C201.503 5.88726 202.071 6.11238 202.597 6.41553V8.69863C202.104 8.41218 201.573 8.19498 201.02 8.05313C200.421 7.89251 199.803 7.81156 199.183 7.81237C198.273 7.81237 197.817 7.96735 197.817 8.27729C197.816 8.34631 197.835 8.41425 197.872 8.47258C197.909 8.53092 197.962 8.57706 198.025 8.60523C198.274 8.711 198.534 8.78626 198.801 8.82939L200.254 9.09091C201.198 9.25695 201.901 9.54753 202.365 9.96264C202.829 10.3778 203.061 10.9852 203.062 11.785C203.07 12.2055 202.967 12.6207 202.764 12.9892C202.561 13.3577 202.266 13.6667 201.906 13.8854C201.141 14.3988 200.049 14.6548 198.629 14.6534C197.813 14.6546 196.999 14.5521 196.209 14.3483Z" fill="white"/>
  <path d="M206.495 14.0432C205.719 13.6863 205.064 13.1088 204.613 12.3827C204.192 11.6707 203.977 10.856 203.99 10.0291C203.978 9.20257 204.205 8.39013 204.644 7.68991C205.112 6.97521 205.779 6.41259 206.562 6.07098C207.514 5.65609 208.545 5.45489 209.584 5.48153C211.037 5.48153 212.243 5.78663 213.201 6.39685V9.05978C212.837 8.81454 212.438 8.62367 212.018 8.49315C211.549 8.34481 211.058 8.27127 210.566 8.27522C209.665 8.27522 208.96 8.43988 208.451 8.7692C208.222 8.89695 208.031 9.08305 207.897 9.30858C207.763 9.5341 207.692 9.79099 207.69 10.0531C207.688 10.3152 207.755 10.5733 207.885 10.8009C208.015 11.0285 208.203 11.2177 208.43 11.3491C208.924 11.6826 209.641 11.8493 210.58 11.8493C211.065 11.8505 211.547 11.7805 212.012 11.6418C212.436 11.5202 212.843 11.3466 213.224 11.1249V13.6986C212.101 14.3534 210.819 14.6853 209.519 14.6575C208.478 14.686 207.443 14.4758 206.495 14.0432Z" fill="white"/>
  <path d="M216.819 14.0432C216.034 13.6845 215.367 13.1083 214.899 12.3827C214.458 11.6724 214.229 10.8507 214.239 10.0145C214.225 9.18827 214.455 8.37615 214.899 7.67954C215.37 6.97243 216.033 6.41494 216.811 6.07306C218.721 5.29815 220.858 5.29815 222.768 6.07306C223.542 6.41233 224.203 6.96708 224.671 7.67123C225.113 8.37042 225.34 9.18356 225.325 10.0104C225.335 10.8457 225.108 11.6669 224.671 12.3786C224.208 13.1046 223.545 13.6813 222.761 14.039C221.823 14.4416 220.812 14.6492 219.79 14.6492C218.769 14.6492 217.758 14.4416 216.819 14.039V14.0432ZM221.234 11.4653C221.413 11.28 221.553 11.06 221.644 10.8187C221.736 10.5774 221.777 10.32 221.765 10.0623C221.778 9.80694 221.737 9.5518 221.645 9.31309C221.554 9.07439 221.414 8.85735 221.234 8.6758C221.039 8.49676 220.809 8.35876 220.56 8.26998C220.31 8.1812 220.045 8.14346 219.781 8.15899C219.517 8.14509 219.252 8.1836 219.003 8.27229C218.754 8.36099 218.524 8.49812 218.328 8.6758C218.149 8.85775 218.009 9.0749 217.918 9.31355C217.827 9.55219 217.786 9.80713 217.799 10.0623C217.787 10.3198 217.828 10.577 217.919 10.8183C218.01 11.0595 218.149 11.2796 218.328 11.4653C218.522 11.6466 218.751 11.7869 219.001 11.8778C219.25 11.9688 219.516 12.0085 219.781 11.9946C220.046 12.01 220.312 11.9711 220.562 11.8801C220.812 11.789 221.041 11.6479 221.234 11.4653Z" fill="white"/>
  <path d="M234.057 6.0191V9.16148C233.623 8.90265 233.123 8.77639 232.618 8.79826C231.844 8.79826 231.246 9.03487 230.831 9.50394C230.416 9.97302 230.208 10.7015 230.208 11.6895V14.3628H226.649V5.86343H230.136V8.56164C230.33 7.57368 230.642 6.84516 231.074 6.37609C231.283 6.14543 231.54 5.96289 231.827 5.84106C232.113 5.71924 232.423 5.66101 232.734 5.6704C233.199 5.65772 233.658 5.77874 234.057 6.0191Z" fill="white"/>
  <path d="M245.883 3.90203V14.3628H242.323V12.4533C242.055 13.1331 241.573 13.7072 240.949 14.0888C240.261 14.4809 239.479 14.6762 238.687 14.6534C237.942 14.6707 237.209 14.4663 236.58 14.066C235.972 13.6706 235.487 13.1117 235.181 12.4533C234.848 11.7266 234.682 10.9343 234.696 10.1349C234.672 9.30608 234.849 8.4838 235.211 7.73765C235.543 7.05422 236.062 6.47863 236.707 6.07721C237.37 5.67533 238.134 5.46885 238.909 5.48153C240.603 5.48153 241.741 6.21766 242.323 7.68991V3.90203H245.883ZM241.8 11.4155C241.982 11.237 242.124 11.0226 242.218 10.786C242.312 10.5494 242.356 10.2959 242.346 10.0415C242.354 9.79475 242.309 9.54916 242.215 9.32092C242.121 9.09268 241.98 8.88695 241.8 8.71731C241.393 8.38575 240.884 8.20472 240.359 8.20472C239.834 8.20472 239.325 8.38575 238.917 8.71731C238.739 8.89085 238.598 9.10012 238.506 9.33149C238.413 9.56287 238.37 9.81116 238.38 10.0602C238.371 10.3116 238.414 10.5621 238.508 10.7955C238.602 11.0289 238.743 11.2402 238.924 11.4155C239.114 11.5928 239.339 11.7302 239.583 11.8196C239.828 11.9091 240.087 11.9488 240.348 11.9365C240.612 11.9511 240.877 11.9125 241.127 11.8231C241.376 11.7336 241.605 11.595 241.8 11.4155Z" fill="white"/>
  <path d="M162.66 1.67497C160.926 0.881212 159.096 0.318094 157.216 0C156.958 0.459917 156.726 0.933111 156.518 1.4176C154.516 1.11582 152.479 1.11582 150.476 1.4176C150.269 0.933161 150.036 0.459973 149.779 0C147.898 0.32078 146.066 0.885235 144.331 1.67912C140.885 6.77667 139.951 11.7476 140.418 16.648C142.436 18.1388 144.694 19.2725 147.095 20C147.636 19.2729 148.114 18.5015 148.525 17.6941C147.745 17.4025 146.991 17.0427 146.273 16.6189C146.462 16.4819 146.647 16.3408 146.825 16.2038C148.914 17.1859 151.193 17.695 153.5 17.695C155.808 17.695 158.087 17.1859 160.175 16.2038C160.356 16.3512 160.541 16.4923 160.727 16.6189C160.008 17.0434 159.253 17.4038 158.471 17.6961C158.882 18.5032 159.36 19.2739 159.901 20C162.304 19.2755 164.564 18.1422 166.583 16.6501C167.131 10.9672 165.646 6.04193 162.66 1.67497ZM149.117 13.6343C147.815 13.6343 146.74 12.4533 146.74 11.0004C146.74 9.54753 147.778 8.35616 149.113 8.35616C150.447 8.35616 151.514 9.54753 151.491 11.0004C151.468 12.4533 150.443 13.6343 149.117 13.6343ZM157.884 13.6343C156.58 13.6343 155.51 12.4533 155.51 11.0004C155.51 9.54753 156.547 8.35616 157.884 8.35616C159.221 8.35616 160.279 9.54753 160.256 11.0004C160.233 12.4533 159.21 13.6343 157.884 13.6343Z" fill="white"/>
  <path d="M190.725 6.76837C191.705 6.76837 192.5 6.0547 192.5 5.17435C192.5 4.29399 191.705 3.58032 190.725 3.58032C189.745 3.58032 188.951 4.29399 188.951 5.17435C188.951 6.0547 189.745 6.76837 190.725 6.76837Z" fill="white"/>
  <path d="M188.949 7.86634C189.511 8.1026 190.115 8.2243 190.724 8.2243C191.334 8.2243 191.938 8.1026 192.5 7.86634V14.4085H188.949V7.86634Z" fill="white"/>
</svg>
