<svg width="30" height="32" viewBox="0 0 30 32" fill="none" xmlns="http://www.w3.org/2000/svg">
<path fill-rule="evenodd" clip-rule="evenodd" d="M29.3986 11.1468V20.8532H29.3995C29.3995 23.0317 28.2733 25.05 26.4317 26.1963V20.2524L26.4306 20.2533L26.4307 20.2524H22.0742V28.7158L17.8463 31.1565C15.8999 32.2812 13.5006 32.2812 11.5532 31.1565L7.32625 28.7164V21.4599V20.4014V20.2474H2.96875V20.4014V21.8851V26.1969C1.12667 25.0507 0 23.0321 0 20.8532V11.1468C0 8.89848 1.19962 6.82085 3.14703 5.69621L11.5532 0.843481C13.4997 -0.28116 15.8989 -0.28116 17.8463 0.843481L26.2515 5.69621C28.1989 6.82085 29.3986 8.89848 29.3986 11.1468ZM8.08676 15.9994C8.08676 17.6236 6.7701 18.9403 5.14592 18.9403C3.52174 18.9403 2.20508 17.6236 2.20508 15.9994C2.20508 14.3753 3.52174 13.0586 5.14592 13.0586C6.7701 13.0586 8.08676 14.3753 8.08676 15.9994ZM27.1942 15.9994C27.1942 17.6236 25.8775 18.9403 24.2533 18.9403C22.6292 18.9403 21.3125 17.6236 21.3125 15.9994C21.3125 14.3753 22.6292 13.0586 24.2533 13.0586C25.8775 13.0586 27.1942 14.3753 27.1942 15.9994ZM10.6739 20.2476C10.6739 22.0875 12.3817 23.7405 14.6996 23.7405C17.0174 23.7405 18.7252 22.0875 18.7252 20.2476H20.4129C20.4129 23.1982 17.7603 25.4282 14.6996 25.4282C11.6389 25.4282 8.98623 23.1982 8.98623 20.2476H10.6739Z" fill="white"/>
</svg>
