<svg
  fill="none"
  xmlns="http://www.w3.org/2000/svg"
  viewBox="0 0 42 42"
>
  <path
    d="M20.973 13.133c.446-1.896 4.862-6.64 6.969-5.057 2.453 1.9-.408 5.716-1.416 7.192 0 0-.201-2.043-1.81-3.894a81.192 81.192 0 0 0-3.162 2.154.374.374 0 0 1-.559-.174.393.393 0 0 1-.022-.221Zm1.8 2.863a.358.358 0 0 0-.202.273.382.382 0 0 0 .048.266c.048.08.123.138.211.164a78.8 78.8 0 0 1 3.624 1.183c-.422 2.433-1.862 3.864-1.862 3.864 1.761-.117 6.47-.21 6.407-3.351-.09-2.663-6.489-3.225-8.226-2.4Zm-1.08 3.214a.364.364 0 0 0-.417.064.377.377 0 0 0-.087.42c.317.802.85 2.165 1.349 3.625-2.136 1.178-4.133.919-4.133.919 1.185 1.329 4.19 5.022 6.561 3.02 1.992-1.73-1.555-7.178-3.273-8.047Zm-3.144 1.144a.369.369 0 0 0-.216-.264.359.359 0 0 0-.47.161 80.286 80.286 0 0 1-1.949 3.327c-2.232-.967-3.278-2.721-3.278-2.721-.283 1.774-1.253 6.469 1.766 7.114 2.568.508 4.55-5.712 4.147-7.617Zm-2.832-1.798a.388.388 0 0 0-.088-.554.364.364 0 0 0-.262-.057c-.84.137-2.266.357-3.773.523-.648-2.384.048-4.304.048-4.304-1.54.874-5.75 3.029-4.367 5.828 1.209 2.365 7.223.069 8.442-1.436Zm-.389-3.376a.355.355 0 0 0 .303-.152.386.386 0 0 0-.048-.508 72.598 72.598 0 0 1-2.75-2.677c1.43-1.998 3.34-2.638 3.34-2.638-1.632-.684-5.908-2.702-7.2.151-1.065 2.433 4.44 5.794 6.355 5.824Zm2.664-2.262a.371.371 0 0 0 .246-.106.384.384 0 0 0 .114-.246c.053-.865.168-2.326.346-3.86 2.428-.107 4.108 1.016 4.108 1.016-.49-1.724-1.603-6.385-4.598-5.643-2.534.67-1.69 7.148-.523 8.697a.374.374 0 0 0 .307.142Z"
    fill="url(#a)"
  />
  <path
    d="m6.441 33.496-.968 4.144-1.168-4.144h-.952L2.21 37.64l-.992-4.144H.145L1.73 39h.92l1.184-4.216L5.033 39h.92l1.56-5.504H6.441Zm4.014 5.6c1.648 0 2.696-1.288 2.696-2.848 0-1.568-1.032-2.848-2.696-2.848-1.664 0-2.696 1.28-2.696 2.848 0 1.56 1.032 2.848 2.696 2.848Zm0-.8c-1.08 0-1.688-.88-1.688-2.048 0-1.168.608-2.048 1.688-2.048 1.064 0 1.688.88 1.688 2.048 0 1.168-.608 2.048-1.688 2.048Zm6.742.704h1.144l-1.56-2.32c.616-.168 1.232-.6 1.232-1.584 0-1.032-.736-1.6-1.856-1.6h-2.168V39h.984v-2.256h.736L17.197 39Zm-2.224-4.64h1.208c.584 0 .872.296.872.76s-.304.76-.872.76h-1.208v-1.52ZM18.979 39h3.688v-.848h-2.704v-4.656h-.984V39Zm4.49 0h2.104c1.632 0 2.632-1.168 2.632-2.768 0-1.656-.976-2.736-2.736-2.736h-2V39Zm.992-.864V34.36h.712c1.336 0 2.024.504 2.024 1.872 0 1.088-.544 1.904-1.672 1.904h-1.064ZM30.81 39h.992v-5.504h-.992V39Zm2.03 0h2.104c1.632 0 2.632-1.168 2.632-2.768 0-1.656-.976-2.736-2.736-2.736h-2V39Zm.992-.864V34.36h.712c1.336 0 2.024.504 2.024 1.872 0 1.088-.544 1.904-1.672 1.904H33.83Z"
    fill="url(#b)"
  />
  <path
    d="M36.992 3.2v.35-.35Zm1 .942h-.35.35Zm-2.35 0a.35.35 0 0 0 .7 0h-.7Zm2.072.652-.245-.25.245.25Zm-1.072 1.073a.35.35 0 1 0 .7 0h-.7Zm.417-.785.022.35-.022-.35Zm-.067.069h-.35.35Zm0-1.6c.38 0 .65.284.65.591h.7c0-.733-.624-1.291-1.35-1.291v.7Zm0-.7c-.174 0-.347.032-.51.095l.255.652a.704.704 0 0 1 .255-.047v-.7Zm-.51.095a1.357 1.357 0 0 0-.437.276l.48.51a.657.657 0 0 1 .212-.134l-.255-.652Zm-.437.276a1.291 1.291 0 0 0-.297.419l.64.282a.59.59 0 0 1 .137-.192l-.48-.51Zm-.297.419c-.07.158-.106.329-.106.501h.7a.55.55 0 0 1 .047-.22l-.641-.281Zm1.894.501a.56.56 0 0 1-.173.403l.49.5a1.26 1.26 0 0 0 .383-.903h-.7Zm-.173.403a.674.674 0 0 1-.432.188l.044.698c.34-.02.65-.164.878-.387l-.49-.5Zm-.127 1.322v-.716h-.7v.716h.7Zm-.305-1.134a.42.42 0 0 0-.395.418h.7a.28.28 0 0 1-.261.28l-.044-.698Z"
    fill="url(#c)"
  />
  <path
    fill-rule="evenodd"
    clip-rule="evenodd"
    d="M36.993 6.597a.35.35 0 0 1 .003.7h-.003a.35.35 0 0 1 0-.7Z"
    fill="url(#d)"
  />
  <circle
    cx="36.995"
    cy="5.003"
    r="3.667"
    stroke="url(#e)"
    stroke-width=".7"
  />
  <defs>
    <linearGradient
      id="a"
      x1="7.32"
      y1="29.743"
      x2="35.367"
      y2="25.552"
      gradientUnits="userSpaceOnUse"
    >
      <stop stop-color="#4940E0" />
      <stop
        offset="1"
        stop-color="#A39DFF"
      />
    </linearGradient>
    <linearGradient
      id="b"
      x1=".507"
      y1="42.726"
      x2="34.839"
      y2="23.234"
      gradientUnits="userSpaceOnUse"
    >
      <stop stop-color="#4940E0" />
      <stop
        offset="1"
        stop-color="#A39DFF"
      />
    </linearGradient>
    <linearGradient
      id="c"
      x1="37.965"
      y1="3.007"
      x2="35.606"
      y2="3.271"
      gradientUnits="userSpaceOnUse"
    >
      <stop stop-color="#4940E0" />
      <stop
        offset="1"
        stop-color="#A39DFF"
      />
    </linearGradient>
    <linearGradient
      id="d"
      x1="37.334"
      y1="6.546"
      x2="36.516"
      y2="6.668"
      gradientUnits="userSpaceOnUse"
    >
      <stop stop-color="#4940E0" />
      <stop
        offset="1"
        stop-color="#A39DFF"
      />
    </linearGradient>
    <linearGradient
      id="e"
      x1="33.426"
      y1="9.202"
      x2="41.996"
      y2="7.921"
      gradientUnits="userSpaceOnUse"
    >
      <stop stop-color="#4940E0" />
      <stop
        offset="1"
        stop-color="#A39DFF"
      />
    </linearGradient>
  </defs>
</svg>
