<svg width="97" height="96" viewBox="0 0 97 96" fill="none" xmlns="http://www.w3.org/2000/svg">
  <g clip-path="url(#clip0_101_769)">
    <path d="M1.5 22.9597L5.90264 27.3624L10.3172 22.9597L14.7198 27.3624L19.1225 22.9597L23.537 27.3624L27.9397 22.9597L32.3423 27.3624" stroke="white" stroke-width="1.74187" stroke-linecap="round" stroke-linejoin="round"/>
    <path d="M70.5 38.6629L74.1629 35L77.8258 38.6629L81.4887 35L85.1516 38.6629L88.8145 35L92.5013 38.6629" stroke="white" stroke-width="1.74187" stroke-linecap="round" stroke-linejoin="round"/>
    <path d="M43.8349 19.7709L14.3729 70.2878C12.5873 73.3661 14.4975 77.4824 17.7156 77.4824H76.6294C79.8579 77.4824 81.7681 73.3661 79.9721 70.2878L50.5101 19.7709C48.9114 17.0386 45.4233 17.0386 43.8349 19.7709Z" fill="url(#paint0_linear_101_769)" stroke="white" stroke-width="1.74187" stroke-linecap="round" stroke-linejoin="round"/>
    <path d="M47.1786 37.6914C50.7222 37.6914 53.2874 41.0441 52.3568 44.4445L49.1234 56.3996C48.5984 58.3921 45.7707 58.3921 45.2338 56.3996L42.0004 44.4445C41.0817 41.0441 43.6469 37.6914 47.1786 37.6914Z" fill="url(#paint1_linear_101_769)" stroke="white" stroke-width="1.74187" stroke-linecap="round" stroke-linejoin="round"/>
    <path d="M47.1787 67.7227C48.9088 67.7227 50.3047 66.3268 50.3047 64.6087C50.3047 62.8906 48.9088 61.4946 47.1787 61.4946C45.4487 61.4946 44.0527 62.8906 44.0527 64.6087C44.0527 66.3268 45.4487 67.7227 47.1787 67.7227Z" fill="url(#paint2_linear_101_769)" stroke="white" stroke-width="1.74187" stroke-linecap="round" stroke-linejoin="round"/>
    <path fill-rule="evenodd" clip-rule="evenodd" d="M27.5114 2.39894C27.8335 2.0768 27.8335 1.56375 27.5114 1.24161C27.2011 0.919464 26.6762 0.919464 26.3659 1.24161L24.4092 3.19834L22.4406 1.24161C22.1304 0.919464 21.6173 0.919464 21.2952 1.24161C20.9849 1.56375 20.9849 2.0768 21.2952 2.39894L23.2519 4.35567L21.2952 6.3124C20.9849 6.63454 20.9849 7.14758 21.2952 7.46973C21.6173 7.79187 22.1304 7.79187 22.4406 7.46973L24.4092 5.513L26.3659 7.46973C26.6762 7.79187 27.2011 7.79187 27.5114 7.46973C27.8335 7.14758 27.8335 6.63454 27.5114 6.3124L25.5546 4.35567L27.5114 2.39894ZM50.3478 87.7194C50.6699 88.0416 50.6699 88.5546 50.3478 88.8767L48.3911 90.8335L50.3478 92.7902C50.6699 93.1123 50.6699 93.6254 50.3478 93.9475C50.0376 94.2697 49.5245 94.2697 49.2024 93.9475L47.2457 91.9908L45.2889 93.9475C44.9668 94.2697 44.4538 94.2697 44.1197 93.9475C43.8095 93.6254 43.8095 93.1123 44.1197 92.7902L46.0883 90.8335L44.1197 88.8767C43.8095 88.5546 43.8095 88.0416 44.1197 87.7194C44.4418 87.3973 44.9549 87.3973 45.2889 87.7194L47.2457 89.6761L49.2024 87.7194C49.5245 87.3973 50.0376 87.3973 50.3478 87.7194ZM86.249 15.929C86.5592 16.2511 86.5592 16.7642 86.249 17.0863L84.2923 19.0431L86.249 20.9998C86.5592 21.3219 86.5592 21.835 86.249 22.1571C85.9268 22.4793 85.4138 22.4793 85.0797 22.1571L83.123 20.2004L81.1663 22.1571C80.8561 22.4793 80.3311 22.4793 80.0209 22.1571C79.6987 21.835 79.6987 21.3219 80.0209 20.9998L81.9776 19.0431L80.0209 17.0863C79.6987 16.7642 79.6987 16.2511 80.0209 15.929C80.3311 15.6068 80.8561 15.6068 81.1663 15.929L83.123 17.8857L85.0797 15.929C85.4019 15.6068 85.9149 15.6068 86.249 15.929Z" fill="url(#paint3_linear_101_769)"/>
  </g>
  <defs>
    <linearGradient id="paint0_linear_101_769" x1="13.6981" y1="47.5946" x2="80.6677" y2="47.5946" gradientUnits="userSpaceOnUse">
      <stop stop-color="#F857A6"/>
      <stop offset="1" stop-color="#FF5858"/>
    </linearGradient>
    <linearGradient id="paint1_linear_101_769" x1="41.8215" y1="47.7853" x2="52.5477" y2="47.7853" gradientUnits="userSpaceOnUse">
      <stop stop-color="#F857A6"/>
      <stop offset="1" stop-color="#FF5858"/>
    </linearGradient>
    <linearGradient id="paint2_linear_101_769" x1="44.0527" y1="64.5968" x2="50.3047" y2="64.5968" gradientUnits="userSpaceOnUse">
      <stop stop-color="#F857A6"/>
      <stop offset="1" stop-color="#FF5858"/>
    </linearGradient>
    <linearGradient id="paint3_linear_101_769" x1="21.0446" y1="99.066" x2="86.4876" y2="99.066" gradientUnits="userSpaceOnUse">
      <stop stop-color="#F857A6"/>
      <stop offset="1" stop-color="#FF5858"/>
    </linearGradient>
    <clipPath id="clip0_101_769">
      <rect width="96" height="96" fill="white" transform="translate(0.5)"/>
    </clipPath>
  </defs>
</svg>
