<svg width="98" height="79" viewBox="0 0 98 79" fill="none" xmlns="http://www.w3.org/2000/svg">
<g opacity="0.02">
<path d="M42.8487 34.1383C43.8356 34.1383 44.7476 34.6649 45.2411 35.5196L55.3852 53.0897C55.8786 53.9444 55.8786 54.9974 55.3852 55.8521L45.2411 73.4222C44.7476 74.2769 43.8356 74.8034 42.8487 74.8034L22.5605 74.8034C21.5736 74.8034 20.6616 74.2769 20.1682 73.4222L10.0241 55.8521C9.53062 54.9974 9.53062 53.9444 10.0241 53.0897L20.1682 35.5196C20.6616 34.6649 21.5736 34.1383 22.5605 34.1383L42.8487 34.1383Z" stroke="white" stroke-width="0.802916"/>
<path d="M80.0499 55.6174C81.0368 55.6174 81.9488 56.1439 82.4422 56.9986L92.5863 74.5687C93.0798 75.4234 93.0798 76.4764 92.5863 77.3311L82.4422 94.9012C81.9488 95.7559 81.0368 96.2824 80.0499 96.2824L59.7617 96.2824C58.7748 96.2824 57.8628 95.7559 57.3693 94.9012L47.2253 77.3311C46.7318 76.4764 46.7318 75.4234 47.2253 74.5687L57.3693 56.9986C57.8628 56.1439 58.7748 55.6174 59.7617 55.6174L80.0499 55.6174Z" stroke="white" stroke-width="0.802916"/>
<path d="M80.0499 12.3722C81.0368 12.3722 81.9488 12.8988 82.4422 13.7535L92.5863 31.3235C93.0798 32.1782 93.0798 33.2313 92.5863 34.086L82.4422 51.6561C81.9488 52.5108 81.0368 53.0373 80.0499 53.0373L59.7617 53.0373C58.7748 53.0373 57.8628 52.5108 57.3693 51.6561L47.2253 34.086C46.7318 33.2313 46.7318 32.1782 47.2253 31.3235L57.3693 13.7535C57.8628 12.8988 58.7748 12.3722 59.7617 12.3722L80.0499 12.3722Z" stroke="white" stroke-width="0.802916"/>
</g>
</svg>
