<svg width="48" height="48" viewBox="0 0 48 48" fill="none" xmlns="http://www.w3.org/2000/svg">
  <g clip-path="url(#clip0_470_9593)">
    <rect width="48" height="48" rx="24" fill="#00B800"/>
    <rect opacity="0.3" width="48" height="48" rx="24" fill="url(#paint0_radial_470_9593)"/>
    <path d="M18.1571 24.8429C17.518 24.2039 16.482 24.2039 15.8429 24.8429C15.2039 25.482 15.2039 26.518 15.8429 27.1571L18.1571 24.8429ZM20.5 29.5L19.3429 30.6571C19.6545 30.9686 20.0785 31.1414 20.519 31.1363C20.9596 31.1311 21.3795 30.9486 21.6837 30.6299L20.5 29.5ZM32.1837 19.6299C32.8077 18.9761 32.7836 17.9403 32.1299 17.3163C31.4761 16.6923 30.4403 16.7164 29.8163 17.3701L32.1837 19.6299ZM29.8163 17.3701L19.3163 28.3701L21.6837 30.6299L32.1837 19.6299L29.8163 17.3701ZM21.6571 28.3429L18.1571 24.8429L15.8429 27.1571L19.3429 30.6571L21.6571 28.3429Z" fill="url(#paint1_linear_470_9593)"/>
  </g>
  <defs>
    <radialGradient id="paint0_radial_470_9593" cx="0" cy="0" r="1" gradientUnits="userSpaceOnUse" gradientTransform="translate(10.9091) rotate(63.4349) scale(53.6656 53.4342)">
      <stop stop-color="white"/>
      <stop offset="1" stop-color="white" stop-opacity="0"/>
    </radialGradient>
    <linearGradient id="paint1_linear_470_9593" x1="24" y1="18.5" x2="24" y2="29.5" gradientUnits="userSpaceOnUse">
      <stop offset="0.40625" stop-color="white"/>
      <stop offset="1" stop-color="white" stop-opacity="0.8"/>
    </linearGradient>
    <clipPath id="clip0_470_9593">
      <rect width="48" height="48" fill="white"/>
    </clipPath>
  </defs>
</svg>
