<?xml version="1.0" standalone="no"?>
<!DOCTYPE svg PUBLIC "-//W3C//DTD SVG 20010904//EN"
 "http://www.w3.org/TR/2001/REC-SVG-20010904/DTD/svg10.dtd">
<svg version="1.0" xmlns="http://www.w3.org/2000/svg"
 width="502.000000pt" height="502.000000pt" viewBox="0 0 502.000000 502.000000"
 preserveAspectRatio="xMidYMid meet">
<metadata>
Created by potrace 1.14, written by Peter Selinger 2001-2017
</metadata>
<g transform="translate(0.000000,502.000000) scale(0.100000,-0.100000)"
fill="#000000" stroke="none">
<path d="M2370 5012 c-54 -7 -211 -52 -257 -73 -45 -21 -287 -159 -893 -509
-140 -81 -320 -184 -400 -230 -177 -101 -247 -150 -326 -227 -122 -120 -222
-296 -266 -469 l-23 -89 0 -885 c0 -487 3 -907 7 -935 33 -238 197 -508 385
-636 27 -18 51 -37 54 -42 3 -5 8 -3 11 5 2 7 4 217 3 465 0 298 3 454 10 456
5 1 159 3 340 2 l330 0 3 -666 2 -665 233 -133 c127 -74 279 -162 337 -196
142 -83 227 -122 340 -153 81 -22 116 -26 240 -26 246 -1 325 26 688 235 78
45 177 102 320 184 119 68 152 92 153 109 0 11 1 310 1 664 l0 642 27 1 c32 1
632 1 646 0 8 -1 11 -143 10 -448 0 -247 1 -456 3 -465 4 -14 15 -9 65 29 221
170 366 421 392 678 8 83 8 1693 0 1750 -36 247 -127 431 -295 594 -76 74
-130 112 -295 207 -66 38 -128 74 -137 79 -9 6 -83 48 -164 95 -183 105 -220
126 -264 152 -19 11 -125 72 -235 136 -110 63 -238 138 -285 165 -149 86 -223
124 -296 150 -70 25 -92 30 -194 46 -53 9 -219 10 -270 3z m-1224 -2062 c70
-24 103 -43 154 -85 232 -194 222 -544 -22 -726 -77 -58 -147 -82 -254 -85
-140 -5 -246 36 -345 135 -116 116 -160 289 -114 450 44 150 170 275 325 318
63 17 194 14 256 -7z m2995 -1 c201 -65 333 -252 323 -457 -4 -78 -19 -134
-57 -205 -53 -100 -180 -199 -288 -224 -67 -16 -210 -8 -271 14 -264 97 -379
400 -248 652 55 105 181 203 297 230 70 17 176 12 244 -10z m-2166 -1152 c24
-188 187 -346 402 -392 83 -17 216 -13 297 9 204 57 359 232 365 411 1 19 7
20 214 19 116 -1 220 -2 229 -3 40 -3 -9 -249 -74 -376 -220 -431 -760 -636
-1243 -473 -343 116 -604 411 -640 724 -4 32 -9 72 -11 87 -3 15 -3 31 0 35 2
4 105 7 229 7 l225 0 7 -48z"/>
</g>
</svg>
