<?xml version="1.0" standalone="no"?>
<!DOCTYPE svg PUBLIC "-//W3C//DTD SVG 20010904//EN"
 "http://www.w3.org/TR/2001/REC-SVG-20010904/DTD/svg10.dtd">
<svg version="1.0" xmlns="http://www.w3.org/2000/svg"
 width="700.000000pt" height="700.000000pt" viewBox="0 0 700.000000 700.000000"
 preserveAspectRatio="xMidYMid meet">
<metadata>
Created by potrace 1.14, written by Peter Selinger 2001-2017
</metadata>
<g transform="translate(0.000000,700.000000) scale(0.100000,-0.100000)"
fill="#000000" stroke="none">
<path d="M3278 6995 c-1 -1 -41 -6 -88 -9 -87 -7 -104 -9 -225 -27 -116 -18
-123 -19 -192 -35 -239 -54 -381 -98 -576 -175 -109 -44 -353 -162 -432 -209
-27 -17 -58 -33 -67 -36 -10 -4 -18 -10 -18 -15 0 -5 -5 -9 -11 -9 -9 0 -131
-78 -185 -119 -12 -9 -32 -23 -44 -31 -125 -84 -374 -307 -525 -471 -241 -261
-469 -608 -605 -919 -23 -52 -45 -104 -50 -115 -68 -151 -151 -429 -195 -655
-31 -162 -35 -185 -52 -365 -15 -152 -7 -607 12 -716 2 -13 7 -44 9 -69 26
-238 115 -569 226 -845 49 -123 173 -370 235 -468 30 -49 55 -90 55 -93 0 -3
4 -10 10 -17 5 -7 46 -64 91 -126 73 -104 182 -242 234 -297 303 -321 528
-505 851 -697 177 -106 474 -238 684 -306 99 -31 303 -86 354 -95 16 -3 52
-10 80 -15 62 -13 96 -18 155 -27 25 -3 57 -8 71 -10 168 -26 655 -25 850 2
19 3 51 7 70 10 408 55 862 210 1214 413 49 28 91 51 93 51 10 0 269 182 358
251 146 114 313 271 435 409 36 40 72 80 80 89 13 14 67 83 92 116 4 6 18 24
31 40 142 181 329 510 432 760 67 162 152 428 181 570 32 154 59 333 71 465
21 223 1 734 -32 850 -2 8 -7 35 -10 60 -3 25 -18 97 -31 160 -94 426 -301
892 -550 1240 -61 86 -170 227 -183 240 -4 3 -24 25 -45 50 -123 142 -301 312
-475 453 -60 48 -204 151 -270 192 -268 167 -517 286 -781 374 -174 58 -415
118 -550 136 -19 3 -46 7 -60 10 -13 2 -54 7 -90 11 -36 3 -76 8 -90 11 -27 5
-536 14 -542 8z m412 -660 c105 -6 116 -7 200 -19 47 -7 183 -31 235 -41 221
-44 559 -177 789 -308 82 -47 277 -178 322 -216 17 -14 52 -44 79 -66 65 -53
87 -74 168 -153 l68 -67 -113 -2 c-62 -2 -549 -5 -1083 -7 -533 -2 -979 -5
-990 -8 -11 -3 -45 -8 -75 -13 -78 -11 -77 -10 -202 -44 -62 -16 -144 -42
-183 -56 -126 -48 -339 -160 -430 -227 -230 -170 -413 -365 -552 -589 -101
-162 -202 -415 -240 -601 l-18 -88 -492 0 c-463 0 -493 1 -493 18 0 14 16 113
35 217 67 371 257 798 502 1127 78 105 98 129 202 241 346 374 790 651 1268
791 150 44 303 77 419 91 33 4 67 9 76 11 10 1 70 6 135 9 65 4 119 7 120 8 3
3 148 -1 253 -8z m2323 -1534 c16 -1 36 -36 99 -181 91 -207 180 -529 203
-732 l6 -58 -1991 0 c-1094 0 -1990 2 -1990 4 0 2 9 34 21 70 94 307 341 597
634 749 179 92 320 131 520 146 67 4 2398 6 2498 2z m-4335 -1698 c47 -250
174 -538 336 -758 76 -103 81 -110 201 -230 259 -261 562 -432 920 -519 55
-13 122 -27 148 -31 27 -4 59 -9 70 -13 12 -3 467 -7 1012 -9 545 -2 1035 -4
1090 -6 l100 -2 -85 -82 c-70 -67 -167 -151 -250 -216 -217 -171 -541 -341
-830 -437 -473 -155 -1027 -184 -1495 -78 -708 160 -1298 553 -1720 1143 -113
158 -244 397 -305 556 -11 30 -25 63 -30 74 -10 23 -40 112 -69 205 -19 64
-56 221 -67 289 -3 18 -7 41 -9 50 -2 9 -6 42 -10 74 l-7 57 494 0 493 0 13
-67z m4637 20 c-24 -187 -59 -338 -125 -534 -62 -185 -153 -388 -175 -389 -86
-5 -2504 0 -2540 5 -101 12 -132 17 -202 36 -349 92 -646 323 -820 639 -32 58
-96 216 -107 263 l-6 27 1990 0 1991 0 -6 -47z"/>
</g>
</svg>
