<?xml version="1.0" standalone="no" ?>
<!DOCTYPE svg PUBLIC "-//W3C//DTD SVG 20010904//EN"
  "http://www.w3.org/TR/2001/REC-SVG-20010904/DTD/svg10.dtd">
<svg
  version="1.0"
  xmlns="http://www.w3.org/2000/svg"
  width="1024.000000pt"
  height="1024.000000pt"
  viewBox="0 0 1024.000000 1024.000000"
  preserveAspectRatio="xMidYMid meet"
>
  <metadata>
    Created by potrace 1.14, written by Peter Selinger 2001-2017
  </metadata>
  <g
    transform="translate(0.000000,1024.000000) scale(0.100000,-0.100000)"
    fill="#000000"
    stroke="none"
  >
    <path
      d="M4848 10235 c-2 -1 -48 -5 -103 -9 -116 -8 -172 -13 -235 -22 -25 -3
-56 -7 -70 -9 -14 -1 -44 -6 -68 -10 -23 -4 -52 -8 -65 -9 -12 -2 -36 -6 -52
-10 -17 -4 -46 -8 -65 -11 -19 -2 -66 -11 -105 -20 -38 -9 -81 -18 -95 -21
-172 -33 -632 -178 -815 -256 -387 -165 -697 -337 -1051 -585 -69 -48 -301
-232 -339 -268 -12 -11 -57 -51 -100 -90 -148 -131 -349 -339 -484 -500 -134
-161 -361 -470 -417 -570 -6 -11 -36 -60 -66 -110 -30 -49 -74 -126 -97 -170
-24 -44 -48 -86 -53 -92 -6 -7 -8 -13 -4 -13 3 0 -4 -17 -17 -37 -29 -47 -132
-274 -186 -412 -143 -357 -263 -805 -307 -1146 -3 -27 -8 -58 -9 -67 -2 -9 -7
-48 -10 -85 -4 -37 -9 -76 -11 -87 -25 -135 -25 -780 1 -1011 1 -16 6 -55 9
-85 3 -30 8 -64 10 -75 2 -11 7 -47 11 -80 4 -32 8 -67 10 -76 6 -28 17 -93
20 -114 7 -48 38 -189 66 -300 17 -66 33 -130 35 -142 9 -49 125 -387 179
-523 79 -200 228 -503 338 -687 51 -85 97 -162 102 -171 67 -113 282 -403 408
-552 175 -206 412 -442 607 -604 47 -39 90 -75 97 -81 108 -91 509 -370 573
-398 8 -4 31 -17 50 -29 272 -167 705 -359 1045 -463 132 -41 369 -106 400
-110 11 -2 76 -14 145 -28 69 -14 161 -31 205 -37 44 -6 91 -13 105 -15 14 -3
54 -7 90 -10 36 -4 72 -8 80 -10 42 -11 264 -19 510 -20 290 0 405 6 608 31
26 3 63 8 82 10 19 2 46 6 60 9 14 3 43 7 65 11 369 52 867 198 1230 359 169
75 178 80 345 167 124 64 147 78 263 149 48 30 102 63 120 74 82 50 348 241
423 304 17 14 52 44 79 66 204 166 473 435 657 655 61 73 165 206 188 240 8
12 21 28 28 36 6 7 12 17 12 22 0 6 4 12 9 14 11 4 151 215 228 343 82 136
263 481 263 500 0 3 16 39 35 81 103 222 248 665 291 884 3 14 9 39 14 55 5
17 11 47 15 69 3 21 7 41 9 45 2 3 7 28 10 55 4 27 9 52 11 55 1 3 6 31 10 61
4 30 10 75 15 100 4 25 8 52 8 60 0 14 8 81 17 145 26 182 26 899 0 1030 -2
11 -7 47 -10 80 -9 85 -14 127 -19 150 -3 11 -8 43 -11 70 -14 114 -98 493
-135 610 -86 270 -133 401 -231 635 -40 95 -223 451 -289 560 -284 472 -666
927 -1061 1261 -29 24 -57 49 -63 55 -26 25 -248 195 -319 245 -124 86 -296
199 -303 199 -2 0 -32 17 -66 38 -35 21 -112 65 -173 97 -60 32 -117 62 -125
67 -153 85 -566 247 -846 332 -75 23 -363 94 -408 100 -21 4 -41 8 -45 10 -3
2 -31 7 -61 11 -30 4 -57 8 -60 10 -5 3 -55 11 -117 19 -52 7 -118 17 -143 21
-14 2 -63 7 -110 11 -46 3 -96 8 -110 11 -28 4 -657 13 -662 8z"
    />
  </g>
</svg>
