<svg xmlns="http://www.w3.org/2000/svg" version="1.1" xmlns:xlink="http://www.w3.org/1999/xlink" width="200" height="200"><svg width="200" height="200" viewBox="0 0 200 200" fill="none" xmlns="http://www.w3.org/2000/svg">
<rect width="200" height="200" fill="#5765EC"></rect>
<path d="M155.263 76.6464C152.238 69.497 147.914 63.0895 142.407 57.5812C136.899 52.0728 130.478 47.7488 123.344 44.7235C115.938 41.584 108.09 40 99.9857 40C91.8954 40 84.0333 41.584 76.6278 44.7235C69.4792 47.7488 63.0725 52.0728 57.5648 57.5812C52.0571 63.0895 47.7337 69.5112 44.7087 76.6464C41.5838 84.0385 40 91.9015 40 99.9929C40 108.084 41.5838 115.947 44.7229 123.354C47.7479 130.503 52.0713 136.91 57.5791 142.419C63.0868 147.927 69.5077 152.251 76.6421 155.276C84.0476 158.402 91.8954 160 100 160C108.09 160 115.952 158.416 123.358 155.276C130.507 152.251 136.913 147.927 142.421 142.419C147.929 136.91 152.252 130.489 155.277 123.354C158.402 115.947 160 108.098 160 99.9929C159.986 91.9015 158.388 84.0385 155.263 76.6464ZM80.0666 94.356C82.5636 84.7663 91.2961 77.6739 101.669 77.6739H143.32C146.002 82.8541 147.715 88.4909 148.385 94.356H80.0666ZM148.385 105.63C147.715 111.495 145.988 117.132 143.32 122.312H101.669C91.3103 122.312 82.5779 115.219 80.0666 105.63H148.385ZM65.541 65.5441C74.7444 56.3396 86.9726 51.2736 99.9857 51.2736C112.999 51.2736 125.227 56.3396 134.43 65.5441C134.716 65.8295 134.987 66.1149 135.258 66.4003H101.669C92.6944 66.4003 84.2616 69.8965 77.912 76.2469C72.918 81.2415 69.6932 87.5348 68.5375 94.3703H51.6005C52.8419 83.482 57.679 73.4071 65.541 65.5441ZM99.9857 148.726C86.9726 148.726 74.7444 143.66 65.541 134.456C57.679 126.593 52.8419 116.518 51.6005 105.644H68.5375C69.679 112.479 72.918 118.773 77.912 123.767C84.2616 130.118 92.6944 133.614 101.669 133.614H135.272C135.001 133.899 134.716 134.185 134.445 134.47C125.241 143.646 112.999 148.726 99.9857 148.726Z" fill="white"></path>
</svg><style>@media (prefers-color-scheme: light) { :root { filter: none; } }
@media (prefers-color-scheme: dark) { :root { filter: none; } }
</style></svg>