<svg
  fill="none"
  xmlns="http://www.w3.org/2000/svg"
  viewBox="0 0 14 14"
>
  <path
    d="m.992 11.076 4.585-6.073L7.86 7.809l3.42-4.239"
    stroke="currentColor"
    stroke-width=".667"
    stroke-linecap="round"
    stroke-linejoin="round"
  />
  <path
    d="M12.431 5.113V9.9c0 1.717-1.403 3.1-3.122 3.1H3.795A3.112 3.112 0 0 1 .672 9.9V4.622c0-1.717 1.403-3.1 3.123-3.1h5.514"
    stroke="currentColor"
    stroke-width=".667"
    stroke-linecap="round"
    stroke-linejoin="round"
  />
  <path
    d="M11.987 3.688c.747 0 1.353-.601 1.353-1.344 0-.742-.606-1.344-1.353-1.344a1.35 1.35 0 0 0-1.354 1.344c0 .743.606 1.344 1.354 1.344Z"
    stroke="currentColor"
    stroke-width=".667"
    stroke-miterlimit="10"
  />
</svg>
