<svg
  fill="none"
  xmlns="http://www.w3.org/2000/svg"
  viewBox="0 0 24 24"
>
  <path
    fill-rule="evenodd"
    clip-rule="evenodd"
    d="M12 .6a11.968 11.968 0 0 0-7.726 2.828A11.843 11.843 0 0 0 .232 10.56 11.803 11.803 0 0 0 1.8 18.595a11.915 11.915 0 0 0 6.428 5.113c.593.11.816-.257.816-.57 0-.312-.012-1.217-.016-2.207-3.317.717-4.018-1.4-4.018-1.4-.541-1.374-1.323-1.735-1.323-1.735-1.083-.735.08-.72.08-.72 1.2.084 1.83 1.222 1.83 1.222 1.062 1.813 2.79 1.288 3.469.982.106-.768.416-1.29.758-1.586-2.65-.299-5.434-1.316-5.434-5.86a4.578 4.578 0 0 1 1.228-3.182c-.123-.299-.531-1.504.116-3.142 0 0 1.002-.318 3.28 1.216a11.381 11.381 0 0 1 5.972 0C17.262 5.192 18.26 5.51 18.26 5.51c.65 1.634.24 2.84.118 3.142a4.568 4.568 0 0 1 1.23 3.187c0 4.553-2.79 5.556-5.444 5.849.427.369.808 1.09.808 2.197 0 1.586-.014 2.863-.014 3.253 0 .316.215.685.82.57a11.915 11.915 0 0 0 6.429-5.114 11.803 11.803 0 0 0 1.566-8.037 11.843 11.843 0 0 0-4.044-7.13A11.968 11.968 0 0 0 12.003.6H12Z"
    fill="#fff"
  />
  <path
    d="M4.592 17.623c-.025.06-.12.077-.197.036-.077-.041-.134-.118-.107-.179.028-.06.12-.076.198-.035.077.041.136.12.106.178Zm.488.538a.198.198 0 0 1-.245-.055c-.077-.082-.093-.196-.033-.247.059-.051.165-.028.243.055.077.082.094.196.035.247Zm.466.679c-.073.05-.198 0-.267-.102a.196.196 0 0 1 0-.283c.073-.05.198 0 .267.1s.07.234 0 .285Zm.63.66c-.065.072-.197.052-.306-.046-.108-.098-.134-.232-.069-.302.065-.071.198-.051.31.045.113.096.134.232.065.302Zm.902.385c-.03.093-.164.134-.298.095-.134-.04-.223-.15-.197-.244.025-.094.161-.137.298-.094.136.043.223.147.197.243Zm.98.069c0 .096-.11.179-.252.18-.143.003-.26-.076-.26-.172 0-.096.111-.179.254-.18.142-.003.258.074.258.172Zm.905-.151c.017.097-.081.197-.224.22-.142.024-.266-.033-.284-.127-.018-.094.085-.197.223-.222.138-.026.267.033.285.13Z"
    fill="currentColor"
  />
</svg>
