<svg
  fill="none"
  xmlns="http://www.w3.org/2000/svg"
  viewBox="0 0 26 33"
>
  <path
    fill-rule="evenodd"
    clip-rule="evenodd"
    d="M8.645 7.497a23100 23100 0 0 0 3.15-.619 4.289 4.289 0 0 1 1.659 0l2.944.579a7.94 7.94 0 0 0-.098-.39c-.256-.923-.652-1.68-1.199-2.196C14.6 4.4 13.836 4 12.531 4s-2.07.399-2.574.873c-.549.516-.946 1.275-1.204 2.197-.04.142-.076.285-.108.427Zm-4.172.82c.071-.714.2-1.514.428-2.326.376-1.343 1.058-2.85 2.316-4.032C8.52.734 10.289 0 12.53 0s4.011.734 5.313 1.96c1.257 1.184 1.936 2.691 2.31 4.034.221.796.349 1.58.42 2.284l1.102.217c.547.169.92.674.92 1.246v1.704h.351c.572 0 1.037.463 1.037 1.034v.945h.95c.358 0 .65.29.65.646v5.304a.65.65 0 0 1-.65.647h-.95v.944c0 .57-.465 1.034-1.038 1.034h-.363c-.288 5.966-6.205 9.072-8.78 10.145a3.068 3.068 0 0 1-2.359 0C8.87 31.072 2.953 27.965 2.664 22h-.026a1.036 1.036 0 0 1-1.037-1.034h-.454A1.145 1.145 0 0 1 0 19.823v-6.201c0-.631.513-1.143 1.147-1.143H1.6c0-.57.464-1.034 1.037-1.034h.014V9.741c0-.572.374-1.076.921-1.246l.9-.177Zm3.363 13.808c.696 0 1.26-.562 1.26-1.256v-1.695c0-.694-.564-1.256-1.26-1.256h-.333c-.696 0-1.26.562-1.26 1.256v1.695c0 .694.564 1.256 1.26 1.256h.333Zm9.574 0h.334c.695 0 1.26-.562 1.26-1.256v-1.695c0-.694-.565-1.256-1.26-1.256h-.334c-.695 0-1.26.562-1.26 1.256v1.695c0 .694.565 1.256 1.26 1.256Z"
    fill="#fff"
  />
</svg>
