<svg
  fill="none"
  xmlns="http://www.w3.org/2000/svg"
  viewBox="0 0 116 28"
>
  <path
    d="M37.441 3.477c0 .837-.248 1.505-.745 2.002-.564.592-1.3.888-2.204.888-.866 0-1.602-.3-2.208-.9-.606-.601-.909-1.346-.909-2.234 0-.889.303-1.633.91-2.233.605-.6 1.341-.901 2.207-.901.43 0 .841.084 1.232.251.39.168.704.391.938.67l-.527.528c-.398-.474-.944-.711-1.643-.711-.631 0-1.178.222-1.639.666-.46.444-.69 1.02-.69 1.73s.23 1.286.69 1.73a2.281 2.281 0 0 0 1.64.667c.67 0 1.228-.223 1.675-.67.29-.291.458-.696.503-1.216h-2.179v-.72H37.4c.028.156.041.307.041.453Z"
    fill="#fff"
  />
  <path
    d="M37.448 3.478h-.1c-.001.819-.24 1.455-.716 1.932h-.001v.002c-.547.571-1.25.856-2.133.857-.843-.001-1.548-.289-2.137-.872-.588-.584-.879-1.297-.88-2.162.001-.866.292-1.579.88-2.162C32.95.489 33.655.202 34.498.2c.417 0 .814.082 1.193.244.378.163.678.377.9.643l.077-.065-.07-.07-.528.528.07.07.078-.064c-.416-.498-1-.75-1.72-.748-.655 0-1.23.233-1.707.694-.482.463-.723 1.072-.723 1.803 0 .73.241 1.34.723 1.802a2.381 2.381 0 0 0 1.707.694c.693.001 1.282-.233 1.747-.699.31-.311.486-.742.532-1.277l.01-.109h-2.189v-.52h2.808v-.1l-.099.017c.028.152.04.296.04.435h.2c0-.152-.014-.308-.043-.47l-.015-.083H34.4v.921h2.278v-.1l-.1-.009c-.044.504-.204.883-.474 1.154-.43.428-.957.64-1.605.64-.608 0-1.124-.21-1.569-.638-.44-.426-.66-.97-.66-1.658 0-.689.22-1.233.66-1.659A2.179 2.179 0 0 1 34.5.938c.675.002 1.186.225 1.565.676l.07.084.605-.605.065-.065-.06-.07A2.57 2.57 0 0 0 35.77.26 3.194 3.194 0 0 0 34.5 0c-.89 0-1.657.312-2.28.93-.624.618-.939 1.393-.938 2.305 0 .91.314 1.687.94 2.304.621.618 1.388.93 2.277.93.926 0 1.694-.307 2.277-.92l-.072-.068.07.07c.518-.517.775-1.216.775-2.073h-.1ZM42.05.971h-2.733v1.903h2.464v.72h-2.464v1.903h2.733v.737h-3.503v-6h3.503v.737Z"
    fill="#fff"
  />
  <path
    d="M42.056.971v-.1h-2.833v2.102h2.465v.521h-2.465v2.103h2.733v.537h-3.303v-5.8h3.303v.637h.1v-.1.1h.1V.134h-3.703v6.2h3.703v-.937h-2.733V3.694h2.465v-.92h-2.465V1.07h2.733v-.1h-.1Zm3.251 5.263h-.772V.971H42.86V.234h4.123v.737h-1.675v5.263Z"
    fill="#fff"
  />
  <path
    d="M45.305 6.234v-.1h-.671V.871h-1.676V.334h3.923v.537h-1.676v5.363h.1v-.1.1h.1V1.071h1.676V.134h-4.323v.937h1.676v5.263h.971v-.1h-.1Zm4.655 0v-6h.772v6h-.771Z"
    fill="#fff"
  />
  <path
    d="M49.967 6.234h.1v-5.9h.57v5.8h-.67v.1h.1-.1v.1h.87v-6.2h-.97v6.2h.1v-.1Zm4.183 0h-.771V.971h-1.676V.234h4.123v.737H54.15v5.263Z"
    fill="#fff"
  />
  <path
    d="M54.157 6.234v-.1h-.672V.871H51.81V.334h3.923v.537h-1.675v5.363h.1v-.1.1h.1V1.071h1.675V.134H51.61v.937h1.676v5.263h.972v-.1h-.1Zm5.656-1.279c.444.45.987.675 1.63.675.642 0 1.186-.225 1.63-.675.444-.45.666-1.024.666-1.722s-.222-1.273-.667-1.722a2.201 2.201 0 0 0-1.63-.674c-.642 0-1.185.224-1.63.674-.443.45-.665 1.024-.665 1.722s.222 1.273.666 1.722Zm3.83.503c-.59.606-1.324.91-2.2.91-.878 0-1.611-.304-2.2-.91-.59-.606-.884-1.348-.884-2.225s.294-1.619.884-2.224c.589-.607 1.322-.91 2.2-.91.872 0 1.603.304 2.196.913.592.61.888 1.35.888 2.221 0 .877-.296 1.619-.884 2.225Z"
    fill="#fff"
  />
  <path
    d="m59.803 4.957-.071.07c.46.468 1.035.705 1.701.704a2.302 2.302 0 0 0 1.701-.704c.464-.468.697-1.073.696-1.792 0-.72-.232-1.325-.696-1.793a2.302 2.302 0 0 0-1.7-.704 2.304 2.304 0 0 0-1.702.704c-.462.468-.696 1.074-.695 1.793-.001.719.233 1.324.695 1.792l.071-.07.071-.07c-.424-.432-.636-.975-.637-1.652 0-.678.213-1.22.637-1.652.428-.432.94-.644 1.56-.645a2.1 2.1 0 0 1 1.558.645c.425.431.637.974.638 1.652-.001.677-.213 1.22-.638 1.652a2.1 2.1 0 0 1-1.559.644 2.103 2.103 0 0 1-1.559-.644l-.07.07Zm3.83.502-.071-.07c-.574.588-1.275.879-2.129.88-.854-.001-1.555-.292-2.128-.88l-.002-.002.002.003c-.572-.59-.854-1.3-.855-2.155 0-.855.283-1.566.855-2.155.573-.588 1.274-.878 2.128-.88.849.002 1.548.293 2.125.884.574.592.858 1.302.86 2.15-.002.855-.285 1.566-.856 2.156l.071.07.072.069c.606-.623.913-1.395.912-2.294 0-.894-.307-1.665-.916-2.29-.61-.628-1.373-.946-2.268-.945-.9 0-1.665.315-2.27.94-.608.623-.914 1.396-.913 2.295 0 .899.305 1.671.912 2.294l.003.003-.003-.003c.606.625 1.371.94 2.271.94.9 0 1.665-.315 2.272-.94l-.072-.07Zm1.969.775v-6h.938l2.916 4.668h.033l-.033-1.156V.234h.771v6h-.804l-3.051-4.893h-.033l.033 1.156v3.737h-.77Z"
    fill="#fff"
  />
  <path
    d="M65.608 6.234h.1v-5.9h.783l2.916 4.668h.191l-.036-1.258V.334h.572v5.8h-.65l-3.05-4.894h-.192l.036 1.258v3.636h-.67v.1h.1-.1v.1h.87V2.495l-.033-1.158-.1.003v.1h.033v-.1l-.085.053 3.08 4.941h.96v-6.2h-.97v3.612l.032 1.158.1-.002v-.1h-.033v.1l.085-.054L66.602.134h-1.094v6.2h.1v-.1Zm31.357 17h1.865v-12.5h-1.865v12.5Zm16.807-7.998-2.139 5.42h-.064l-2.221-5.42h-2.009l3.329 7.576-1.898 4.213h1.947l5.13-11.789h-2.075Zm-10.582 6.578c-.612 0-1.464-.305-1.464-1.061 0-.965 1.062-1.335 1.978-1.335.821 0 1.206.177 1.705.418a2.262 2.262 0 0 1-2.219 1.978Zm.225-6.851c-1.351 0-2.751.595-3.329 1.914l1.656.691c.354-.691 1.013-.917 1.705-.917.965 0 1.946.58 1.962 1.61v.128c-.338-.193-1.061-.483-1.946-.483-1.785 0-3.603.981-3.603 2.815 0 1.672 1.464 2.75 3.104 2.75 1.255 0 1.946-.563 2.381-1.222h.064v.965h1.801V18.42c0-2.22-1.656-3.458-3.795-3.458Zm-11.533 1.795h-2.654v-4.285h2.654c1.395 0 2.188 1.155 2.188 2.143 0 .968-.792 2.142-2.188 2.142Zm-.047-6.025h-4.471v12.501h1.864v-4.736h2.607c2.068 0 4.1-1.497 4.1-3.883 0-2.385-2.032-3.882-4.1-3.882ZM67.454 21.817c-1.29 0-2.369-1.08-2.369-2.562 0-1.498 1.08-2.594 2.369-2.594 1.272 0 2.271 1.096 2.271 2.594 0 1.482-.999 2.562-2.271 2.562Zm2.142-5.88h-.064c-.42-.5-1.225-.951-2.24-.951-2.126 0-4.076 1.869-4.076 4.269 0 2.384 1.95 4.237 4.076 4.237 1.015 0 1.82-.451 2.24-.966h.064v.612c0 1.627-.87 2.497-2.271 2.497-1.144 0-1.853-.822-2.143-1.514l-1.627.676c.467 1.128 1.708 2.514 3.77 2.514 2.19 0 4.043-1.29 4.043-4.431v-7.636h-1.772v.692Zm3.061 7.297h1.869V10.733h-1.869v12.501Zm4.624-4.124c-.049-1.643 1.272-2.48 2.223-2.48.742 0 1.37.37 1.578.902l-3.801 1.578Zm5.8-1.418c-.355-.95-1.434-2.706-3.642-2.706-2.19 0-4.01 1.724-4.01 4.253 0 2.384 1.803 4.253 4.22 4.253 1.95 0 3.078-1.192 3.544-1.885l-1.45-.966c-.483.709-1.143 1.176-2.094 1.176-.95 0-1.627-.435-2.062-1.289l5.686-2.352-.192-.483Zm-45.309-1.401v1.804h4.318c-.13 1.015-.467 1.756-.983 2.272-.628.628-1.61 1.32-3.335 1.32-2.658 0-4.736-2.142-4.736-4.8s2.078-4.801 4.736-4.801c1.434 0 2.481.564 3.255 1.289l1.272-1.273c-1.08-1.031-2.513-1.82-4.527-1.82-3.64 0-6.702 2.964-6.702 6.605 0 3.641 3.061 6.605 6.702 6.605 1.966 0 3.448-.644 4.608-1.853 1.192-1.192 1.563-2.867 1.563-4.22 0-.42-.032-.806-.097-1.128h-6.074Zm11.08 5.526c-1.29 0-2.402-1.064-2.402-2.578 0-1.53 1.112-2.578 2.401-2.578 1.289 0 2.4 1.047 2.4 2.578 0 1.514-1.111 2.578-2.4 2.578Zm0-6.831c-2.353 0-4.27 1.788-4.27 4.253 0 2.449 1.917 4.253 4.27 4.253 2.351 0 4.268-1.804 4.268-4.253 0-2.465-1.917-4.253-4.269-4.253Zm9.312 6.83c-1.288 0-2.4-1.063-2.4-2.577 0-1.53 1.112-2.578 2.4-2.578 1.29 0 2.4 1.047 2.4 2.578 0 1.514-1.11 2.578-2.4 2.578Zm0-6.83c-2.352 0-4.269 1.788-4.269 4.253 0 2.449 1.917 4.253 4.27 4.253 2.351 0 4.269-1.804 4.269-4.253 0-2.465-1.918-4.253-4.27-4.253Z"
    fill="#fff"
  />
  <path
    d="m.537 25.625-.074-.071C.172 25.246 0 24.768 0 24.149v.145-22.12.152C0 1.655.2 1.15.536.847l12.39 12.39L.537 25.624ZM0 2.172Zm.004-.163v-.003.003Zm0-.007V2v.002Z"
    fill="url(#a)"
  />
  <path
    d="m17.059 17.512.094-.054 4.893-2.78c.467-.265.777-.587.933-.927-.155.34-.466.662-.933.928l-4.893 2.78-.094.053Zm.001-.147-4.13-4.131 4.13-4.13 4.986 2.832c.633.36.989.824 1.048 1.298v.002c-.06.472-.415.936-1.048 1.296l-4.986 2.833Z"
    fill="url(#b)"
  />
  <path
    d="M1.42 26.096Zm0-.147c-.346 0-.648-.112-.883-.325l12.388-12.389 4.13 4.131-14.514 8.248c-.402.227-.782.335-1.12.335Zm-.887-.181a1.36 1.36 0 0 1-.064-.063l.064.063Z"
    fill="url(#c)"
  />
  <path
    d="M12.921 13.234.531.844c.236-.21.537-.324.883-.324.34 0 .72.108 1.122.337l14.515 8.247-4.13 4.13Zm4.224-4.223L2.536.71C2.134.482 1.753.374 1.414.374H1.41h.006c.338 0 .718.108 1.12.336l14.609 8.3Z"
    fill="url(#d)"
  />
  <path
    d="M1.51 26.094c.315-.018.663-.126 1.03-.334l14.513-8.247L2.54 25.76c-.366.208-.714.316-1.028.334Zm-.975-.323-.003-.003.003.003Zm-.068-.066L.461 25.7l.006.006Z"
    fill="#000"
  />
  <path
    d="m17.055 17.514.094-.054-.094.054Z"
    fill="url(#e)"
  />
  <path
    d="M1.42 26.096c-.347 0-.65-.113-.885-.326l-.003-.002-.065-.063-.006-.006.074-.075c.236.213.538.326.884.325.338 0 .719-.108 1.12-.335l14.515-8.248.093.093-.094.054L2.54 25.76c-.366.207-.714.315-1.028.333l-.092.003Z"
    fill="url(#f)"
  />
  <path
    d="M.463 25.7C.172 25.39 0 24.912 0 24.293c0 .62.172 1.097.463 1.405Z"
    fill="#000"
  />
  <path
    d="M.463 25.7C.172 25.39 0 24.913 0 24.293v-.146c0 .62.172 1.098.463 1.405l.074.072-.074.074Z"
    fill="url(#g)"
  />
  <path
    d="m.46 25.7.075-.075-.074.074Z"
    fill="url(#h)"
  />
  <path
    d="M22.977 13.752Z"
    fill="#000"
  />
  <path
    d="m17.148 17.459-.093-.093 4.986-2.833c.633-.36.988-.824 1.048-1.297 0 .174-.039.347-.116.516-.155.34-.466.662-.932.927l-4.893 2.78Z"
    fill="url(#i)"
  />
  <path
    d="M23.09 13.234c0-.523-.35-1.046-1.048-1.443l-4.893-2.78 4.893 2.78c.699.396 1.049.92 1.048 1.443Z"
    fill="#404040"
  />
  <path
    d="M23.09 13.234c-.06-.473-.416-.937-1.049-1.297l-4.986-2.833.093-.093 4.893 2.78c.698.397 1.048.92 1.048 1.443Z"
    fill="url(#j)"
  />
  <path
    d="M0 2.172V2.17Zm.004-.163v-.002.002Zm0-.004V2v.005Zm0-.006C.063.97.622.379 1.412.375A1.286 1.286 0 0 0 .537.7L.534.701a1.338 1.338 0 0 0-.071.07C.2 1.05.035 1.466.005 1.999Z"
    fill="#404040"
  />
  <path
    d="M0 2.324v-.153c0-.055.001-.109.004-.16V2C.035 1.466.2 1.05.464.773l.073.073C.2 1.149 0 1.654 0 2.324ZM.534.703.537.7.534.703Z"
    fill="url(#k)"
  />
  <path
    d="M17.054 9.104 2.539.856C2.137.628 1.756.52 1.417.52 1.07.52.77.632.534.845L.461.77C.484.747.507.723.532.701L.535.7c.233-.21.532-.323.874-.325h.008c.339 0 .72.108 1.122.336l14.608 8.3-.093.094Z"
    fill="url(#l)"
  />
  <defs>
    <linearGradient
      id="a"
      x1="11.827"
      y1="1.945"
      x2="-4.955"
      y2="18.728"
      gradientUnits="userSpaceOnUse"
    >
      <stop stop-color="#00A0FF" />
      <stop
        offset=".007"
        stop-color="#00A1FF"
      />
      <stop
        offset=".26"
        stop-color="#00BEFF"
      />
      <stop
        offset=".512"
        stop-color="#00D2FF"
      />
      <stop
        offset=".76"
        stop-color="#00DFFF"
      />
      <stop
        offset="1"
        stop-color="#00E3FF"
      />
    </linearGradient>
    <linearGradient
      id="b"
      x1="23.866"
      y1="13.235"
      x2="-.331"
      y2="13.235"
      gradientUnits="userSpaceOnUse"
    >
      <stop stop-color="#FFE000" />
      <stop
        offset=".409"
        stop-color="#FFBD00"
      />
      <stop
        offset=".775"
        stop-color="orange"
      />
      <stop
        offset="1"
        stop-color="#FF9C00"
      />
    </linearGradient>
    <linearGradient
      id="c"
      x1="14.854"
      y1="15.53"
      x2="-7.904"
      y2="38.289"
      gradientUnits="userSpaceOnUse"
    >
      <stop stop-color="#FF3A44" />
      <stop
        offset="1"
        stop-color="#C31162"
      />
    </linearGradient>
    <linearGradient
      id="d"
      x1="-2.68"
      y1="-6.59"
      x2="7.482"
      y2="3.572"
      gradientUnits="userSpaceOnUse"
    >
      <stop stop-color="#32A071" />
      <stop
        offset=".069"
        stop-color="#2DA771"
      />
      <stop
        offset=".476"
        stop-color="#15CF74"
      />
      <stop
        offset=".801"
        stop-color="#06E775"
      />
      <stop
        offset="1"
        stop-color="#00F076"
      />
    </linearGradient>
    <linearGradient
      id="e"
      x1="23.861"
      y1="13.236"
      x2="-.335"
      y2="13.236"
      gradientUnits="userSpaceOnUse"
    >
      <stop stop-color="#CCB300" />
      <stop
        offset=".409"
        stop-color="#CC9700"
      />
      <stop
        offset=".775"
        stop-color="#CC8400"
      />
      <stop
        offset="1"
        stop-color="#CC7D00"
      />
    </linearGradient>
    <linearGradient
      id="f"
      x1="14.852"
      y1="15.53"
      x2="-7.906"
      y2="38.289"
      gradientUnits="userSpaceOnUse"
    >
      <stop stop-color="#CC2E36" />
      <stop
        offset="1"
        stop-color="#9C0E4E"
      />
    </linearGradient>
    <linearGradient
      id="g"
      x1="11.827"
      y1="1.945"
      x2="-4.955"
      y2="18.727"
      gradientUnits="userSpaceOnUse"
    >
      <stop stop-color="#008DE0" />
      <stop
        offset=".007"
        stop-color="#008DE0"
      />
      <stop
        offset=".26"
        stop-color="#00A7E0"
      />
      <stop
        offset=".512"
        stop-color="#00B8E0"
      />
      <stop
        offset=".76"
        stop-color="#00C4E0"
      />
      <stop
        offset="1"
        stop-color="#00C7E0"
      />
    </linearGradient>
    <linearGradient
      id="h"
      x1="14.853"
      y1="15.532"
      x2="-7.905"
      y2="38.29"
      gradientUnits="userSpaceOnUse"
    >
      <stop stop-color="#E0333C" />
      <stop
        offset="1"
        stop-color="#AB0F56"
      />
    </linearGradient>
    <linearGradient
      id="i"
      x1="23.86"
      y1="13.235"
      x2="-.337"
      y2="13.235"
      gradientUnits="userSpaceOnUse"
    >
      <stop stop-color="#E0C500" />
      <stop
        offset=".409"
        stop-color="#E0A600"
      />
      <stop
        offset=".775"
        stop-color="#E09100"
      />
      <stop
        offset="1"
        stop-color="#E08900"
      />
    </linearGradient>
    <linearGradient
      id="j"
      x1="23.861"
      y1="13.235"
      x2="-.336"
      y2="13.235"
      gradientUnits="userSpaceOnUse"
    >
      <stop stop-color="#FFE840" />
      <stop
        offset=".409"
        stop-color="#FFCE40"
      />
      <stop
        offset=".775"
        stop-color="#FFBC40"
      />
      <stop
        offset="1"
        stop-color="#FFB540"
      />
    </linearGradient>
    <linearGradient
      id="k"
      x1="11.827"
      y1="1.944"
      x2="-4.955"
      y2="18.727"
      gradientUnits="userSpaceOnUse"
    >
      <stop stop-color="#40B8FF" />
      <stop
        offset=".007"
        stop-color="#40B9FF"
      />
      <stop
        offset=".26"
        stop-color="#40CEFF"
      />
      <stop
        offset=".512"
        stop-color="#40DDFF"
      />
      <stop
        offset=".76"
        stop-color="#40E7FF"
      />
      <stop
        offset="1"
        stop-color="#40EAFF"
      />
    </linearGradient>
    <linearGradient
      id="l"
      x1="-2.677"
      y1="-6.591"
      x2="7.485"
      y2="3.572"
      gradientUnits="userSpaceOnUse"
    >
      <stop stop-color="#65B895" />
      <stop
        offset=".069"
        stop-color="#62BD95"
      />
      <stop
        offset=".476"
        stop-color="#50DB97"
      />
      <stop
        offset=".801"
        stop-color="#44ED98"
      />
      <stop
        offset="1"
        stop-color="#40F498"
      />
    </linearGradient>
  </defs>
</svg>
