<svg width="385" height="172" viewBox="0 0 385 172" fill="none" xmlns="http://www.w3.org/2000/svg">
<path opacity="0.05" fill-rule="evenodd" clip-rule="evenodd" d="M179.684 4.87865C179.684 7.57369 177.5 9.75761 174.851 9.75761C172.203 9.75761 170.019 7.57369 170.019 4.87865C170.019 2.18363 172.203 -0.000266927 174.851 -0.000267042C177.5 -0.000267158 179.684 2.18363 179.684 4.87865ZM145.717 4.87866C145.717 7.57369 143.533 9.75761 140.885 9.75761C138.236 9.75761 136.052 7.57369 136.052 4.87866C136.052 2.18363 138.236 -0.000265442 140.885 -0.000265558C143.533 -0.000265673 145.717 2.18363 145.717 4.87866ZM111.751 4.87866C111.751 7.5737 109.567 9.75761 106.918 9.75761C104.27 9.75761 102.086 7.5737 102.086 4.87866C102.086 2.18364 104.27 -0.000263957 106.918 -0.000264073C109.567 -0.000264189 111.751 2.18363 111.751 4.87866ZM77.784 4.87866C77.784 7.5737 75.6001 9.75761 72.9515 9.75761C70.303 9.75761 68.1191 7.5737 68.1191 4.87866C68.1191 2.18364 70.303 -0.000262472 72.9515 -0.000262588C75.6001 -0.000262704 77.784 2.18364 77.784 4.87866ZM43.8174 4.87866C43.8174 7.5737 41.6335 9.75761 38.9849 9.75761C36.3364 9.75761 34.1525 7.5737 34.1525 4.87866C34.1525 2.18364 36.3364 -0.000260988 38.9849 -0.000261103C41.6335 -0.000261219 43.8174 2.18364 43.8174 4.87866ZM9.85075 4.87866C9.85075 7.5737 7.66685 9.75761 5.01829 9.75761C2.36973 9.75761 0.185826 7.5737 0.185825 4.87866C0.185825 2.18364 2.36973 -0.000259503 5.01829 -0.000259619C7.66685 -0.000259735 9.85075 2.18364 9.85075 4.87866ZM179.637 36.9402C179.637 39.6352 177.454 41.8191 174.805 41.8191C172.156 41.8191 169.972 39.6352 169.972 36.9402C169.972 34.2452 172.156 32.0613 174.805 32.0613C177.454 32.0613 179.637 34.2452 179.637 36.9402ZM145.671 36.9402C145.671 39.6352 143.487 41.8191 140.838 41.8191C138.19 41.8191 136.006 39.6352 136.006 36.9402C136.006 34.2452 138.19 32.0613 140.838 32.0613C143.487 32.0613 145.671 34.2452 145.671 36.9402ZM111.704 36.9402C111.704 39.6352 109.52 41.8191 106.872 41.8191C104.223 41.8191 102.039 39.6352 102.039 36.9402C102.039 34.2452 104.223 32.0613 106.872 32.0613C109.52 32.0613 111.704 34.2452 111.704 36.9402ZM77.7375 36.9402C77.7375 39.6352 75.5536 41.8191 72.9051 41.8191C70.2565 41.8191 68.0726 39.6352 68.0726 36.9402C68.0726 34.2452 70.2565 32.0613 72.9051 32.0613C75.5536 32.0613 77.7375 34.2452 77.7375 36.9402ZM43.7709 36.9402C43.7709 39.6352 41.587 41.8191 38.9385 41.8191C36.2899 41.8191 34.106 39.6352 34.106 36.9402C34.106 34.2452 36.2899 32.0613 38.9385 32.0613C41.587 32.0613 43.7709 34.2452 43.7709 36.9402ZM9.80428 36.9402C9.80428 39.6352 7.62041 41.8191 4.97185 41.8191C2.32329 41.8191 0.139386 39.6352 0.139386 36.9402C0.139386 34.2452 2.32329 32.0613 4.97185 32.0613C7.62041 32.0613 9.80428 34.2452 9.80428 36.9402ZM179.591 69.0017C179.591 71.6967 177.407 73.8806 174.758 73.8806C172.11 73.8806 169.926 71.6967 169.926 69.0017C169.926 66.3067 172.11 64.1228 174.758 64.1228C177.407 64.1228 179.591 66.3067 179.591 69.0017ZM145.624 69.0017C145.624 71.6967 143.44 73.8806 140.792 73.8806C138.143 73.8806 135.959 71.6967 135.959 69.0017C135.959 66.3067 138.143 64.1228 140.792 64.1228C143.44 64.1228 145.624 66.3067 145.624 69.0017ZM111.658 69.0017C111.658 71.6967 109.474 73.8806 106.825 73.8806C104.177 73.8806 101.993 71.6967 101.993 69.0017C101.993 66.3067 104.177 64.1228 106.825 64.1228C109.474 64.1228 111.658 66.3067 111.658 69.0017ZM77.6911 69.0017C77.6911 71.6967 75.5072 73.8806 72.8586 73.8806C70.2101 73.8806 68.0262 71.6967 68.0262 69.0017C68.0262 66.3067 70.2101 64.1228 72.8586 64.1228C75.5072 64.1228 77.6911 66.3067 77.6911 69.0017ZM43.7244 69.0017C43.7244 71.6967 41.5405 73.8806 38.892 73.8806C36.2434 73.8806 34.0595 71.6967 34.0595 69.0017C34.0595 66.3067 36.2434 64.1228 38.892 64.1228C41.5405 64.1228 43.7244 66.3067 43.7244 69.0017ZM9.75784 69.0017C9.75784 71.6967 7.57394 73.8806 4.92538 73.8806C2.27682 73.8806 0.092912 71.6967 0.0929119 69.0017C0.0929117 66.3067 2.27682 64.1228 4.92538 64.1228C7.57394 64.1228 9.75784 66.3067 9.75784 69.0017ZM179.544 102.457C179.544 105.152 177.361 107.336 174.712 107.336C172.063 107.336 169.88 105.152 169.88 102.457C169.88 99.7622 172.063 97.5783 174.712 97.5783C177.361 97.5783 179.544 99.7622 179.544 102.457ZM145.578 102.457C145.578 105.152 143.394 107.336 140.745 107.336C138.097 107.336 135.913 105.152 135.913 102.457C135.913 99.7622 138.097 97.5783 140.745 97.5783C143.394 97.5783 145.578 99.7622 145.578 102.457ZM111.611 102.457C111.611 105.152 109.427 107.336 106.779 107.336C104.13 107.336 101.946 105.152 101.946 102.457C101.946 99.7622 104.13 97.5783 106.779 97.5783C109.427 97.5783 111.611 99.7622 111.611 102.457ZM77.6446 102.457C77.6446 105.152 75.4607 107.336 72.8122 107.336C70.1636 107.336 67.9797 105.152 67.9797 102.457C67.9797 99.7622 70.1636 97.5783 72.8122 97.5783C75.4607 97.5783 77.6446 99.7622 77.6446 102.457ZM43.678 102.457C43.678 105.152 41.4941 107.336 38.8455 107.336C36.197 107.336 34.0131 105.152 34.0131 102.457C34.0131 99.7622 36.1969 97.5783 38.8455 97.5783C41.4941 97.5783 43.678 99.7622 43.678 102.457ZM9.71137 102.457C9.71137 105.152 7.52746 107.336 4.8789 107.336C2.23034 107.336 0.0464375 105.152 0.0464374 102.457C0.0464373 99.7622 2.23034 97.5783 4.8789 97.5783C7.52746 97.5783 9.71137 99.7622 9.71137 102.457ZM179.498 134.519C179.498 137.214 177.314 139.398 174.666 139.398C172.017 139.398 169.833 137.214 169.833 134.519C169.833 131.824 172.017 129.64 174.666 129.64C177.314 129.64 179.498 131.824 179.498 134.519ZM145.531 134.519C145.531 137.214 143.347 139.398 140.699 139.398C138.05 139.398 135.866 137.214 135.866 134.519C135.866 131.824 138.05 129.64 140.699 129.64C143.347 129.64 145.531 131.824 145.531 134.519ZM111.565 134.519C111.565 137.214 109.381 139.398 106.732 139.398C104.084 139.398 101.9 137.214 101.9 134.519C101.9 131.824 104.084 129.64 106.732 129.64C109.381 129.64 111.565 131.824 111.565 134.519ZM77.5981 134.519C77.5981 137.214 75.4142 139.398 72.7657 139.398C70.1171 139.398 67.9332 137.214 67.9332 134.519C67.9332 131.824 70.1171 129.64 72.7657 129.64C75.4142 129.64 77.5981 131.824 77.5981 134.519ZM43.6315 134.519C43.6315 137.214 41.4476 139.398 38.7991 139.398C36.1505 139.398 33.9666 137.214 33.9666 134.519C33.9666 131.824 36.1505 129.64 38.7991 129.64C41.4476 129.64 43.6315 131.824 43.6315 134.519ZM9.66489 134.519C9.66489 137.214 7.48099 139.398 4.83243 139.398C2.18387 139.398 -1.49285e-06 137.214 -1.61066e-06 134.519C-1.72846e-06 131.824 2.18387 129.64 4.83243 129.64C7.48099 129.64 9.66489 131.824 9.66489 134.519ZM179.684 166.487C179.684 169.182 177.5 171.366 174.851 171.366C172.203 171.366 170.019 169.182 170.019 166.487C170.019 163.792 172.203 161.608 174.851 161.608C177.5 161.608 179.684 163.792 179.684 166.487ZM145.717 166.487C145.717 169.182 143.533 171.366 140.885 171.366C138.236 171.366 136.052 169.182 136.052 166.487C136.052 163.792 138.236 161.608 140.885 161.608C143.533 161.608 145.717 163.792 145.717 166.487ZM111.751 166.487C111.751 169.182 109.567 171.366 106.918 171.366C104.27 171.366 102.086 169.182 102.086 166.487C102.086 163.792 104.27 161.608 106.918 161.608C109.567 161.608 111.751 163.792 111.751 166.487ZM77.784 166.487C77.784 169.182 75.6001 171.366 72.9516 171.366C70.303 171.366 68.1191 169.182 68.1191 166.487C68.1191 163.792 70.303 161.608 72.9516 161.608C75.6001 161.608 77.784 163.792 77.784 166.487ZM43.8174 166.487C43.8174 169.182 41.6335 171.366 38.9849 171.366C36.3364 171.366 34.1525 169.182 34.1525 166.487C34.1525 163.792 36.3364 161.608 38.9849 161.608C41.6335 161.608 43.8174 163.792 43.8174 166.487ZM9.85076 166.487C9.85076 169.182 7.66686 171.366 5.0183 171.366C2.36974 171.366 0.185833 169.182 0.185832 166.487C0.185832 163.792 2.36974 161.608 5.0183 161.608C7.66686 161.608 9.85076 163.792 9.85076 166.487ZM384.088 4.87865C384.088 7.57368 381.904 9.7576 379.255 9.7576C376.607 9.7576 374.423 7.57368 374.423 4.87865C374.423 2.18362 376.607 -0.000275861 379.255 -0.000275977C381.904 -0.000276093 384.088 2.18362 384.088 4.87865ZM350.121 4.87865C350.121 7.57368 347.937 9.7576 345.289 9.7576C342.64 9.7576 340.456 7.57369 340.456 4.87865C340.456 2.18362 342.64 -0.000274377 345.289 -0.000274492C347.937 -0.000274608 350.121 2.18362 350.121 4.87865ZM316.154 4.87865C316.154 7.57369 313.97 9.7576 311.322 9.7576C308.673 9.7576 306.489 7.57369 306.489 4.87865C306.489 2.18363 308.673 -0.000272892 311.322 -0.000273008C313.97 -0.000273124 316.154 2.18363 316.154 4.87865ZM282.188 4.87865C282.188 7.57369 280.004 9.7576 277.355 9.7576C274.707 9.7576 272.523 7.57369 272.523 4.87865C272.523 2.18363 274.707 -0.000271407 277.355 -0.000271523C280.004 -0.000271639 282.188 2.18363 282.188 4.87865ZM248.221 4.87865C248.221 7.57369 246.037 9.7576 243.389 9.7576C240.74 9.7576 238.556 7.57369 238.556 4.87865C238.556 2.18363 240.74 -0.000269922 243.389 -0.000270038C246.037 -0.000270154 248.221 2.18363 248.221 4.87865ZM214.255 4.87865C214.255 7.57369 212.071 9.7576 209.422 9.7576C206.774 9.75761 204.59 7.57369 204.59 4.87865C204.59 2.18363 206.774 -0.000268438 209.422 -0.000268554C212.071 -0.000268669 214.255 2.18363 214.255 4.87865ZM384.041 36.9402C384.041 39.6352 381.857 41.8191 379.209 41.8191C376.56 41.8191 374.376 39.6352 374.376 36.9402C374.376 34.2451 376.56 32.0612 379.209 32.0612C381.857 32.0612 384.041 34.2451 384.041 36.9402ZM350.075 36.9402C350.075 39.6352 347.891 41.8191 345.242 41.8191C342.594 41.8191 340.41 39.6352 340.41 36.9402C340.41 34.2451 342.594 32.0612 345.242 32.0612C347.891 32.0612 350.075 34.2451 350.075 36.9402ZM316.108 36.9402C316.108 39.6352 313.924 41.8191 311.275 41.8191C308.627 41.8191 306.443 39.6352 306.443 36.9402C306.443 34.2451 308.627 32.0613 311.275 32.0613C313.924 32.0613 316.108 34.2451 316.108 36.9402ZM282.141 36.9402C282.141 39.6352 279.957 41.8191 277.309 41.8191C274.66 41.8191 272.476 39.6352 272.476 36.9402C272.476 34.2452 274.66 32.0613 277.309 32.0613C279.957 32.0613 282.141 34.2452 282.141 36.9402ZM248.175 36.9402C248.175 39.6352 245.991 41.8191 243.342 41.8191C240.694 41.8191 238.51 39.6352 238.51 36.9402C238.51 34.2452 240.694 32.0613 243.342 32.0613C245.991 32.0613 248.175 34.2452 248.175 36.9402ZM214.208 36.9402C214.208 39.6352 212.024 41.8191 209.376 41.8191C206.727 41.8191 204.543 39.6352 204.543 36.9402C204.543 34.2452 206.727 32.0613 209.376 32.0613C212.024 32.0613 214.208 34.2452 214.208 36.9402ZM383.995 69.0017C383.995 71.6967 381.811 73.8806 379.162 73.8806C376.514 73.8806 374.33 71.6967 374.33 69.0017C374.33 66.3067 376.514 64.1228 379.162 64.1228C381.811 64.1228 383.995 66.3067 383.995 69.0017ZM350.028 69.0017C350.028 71.6967 347.844 73.8806 345.196 73.8806C342.547 73.8806 340.363 71.6967 340.363 69.0017C340.363 66.3067 342.547 64.1228 345.196 64.1228C347.844 64.1228 350.028 66.3067 350.028 69.0017ZM316.061 69.0017C316.061 71.6967 313.878 73.8806 311.229 73.8806C308.58 73.8806 306.397 71.6967 306.397 69.0017C306.397 66.3067 308.58 64.1228 311.229 64.1228C313.878 64.1228 316.061 66.3067 316.061 69.0017ZM282.095 69.0017C282.095 71.6967 279.911 73.8806 277.262 73.8806C274.614 73.8806 272.43 71.6967 272.43 69.0017C272.43 66.3067 274.614 64.1228 277.262 64.1228C279.911 64.1228 282.095 66.3067 282.095 69.0017ZM248.128 69.0017C248.128 71.6967 245.944 73.8806 243.296 73.8806C240.647 73.8806 238.463 71.6967 238.463 69.0017C238.463 66.3067 240.647 64.1228 243.296 64.1228C245.944 64.1228 248.128 66.3067 248.128 69.0017ZM214.162 69.0017C214.162 71.6967 211.978 73.8806 209.329 73.8806C206.681 73.8806 204.497 71.6967 204.497 69.0017C204.497 66.3067 206.681 64.1228 209.329 64.1228C211.978 64.1228 214.162 66.3067 214.162 69.0017ZM383.948 102.457C383.948 105.152 381.764 107.336 379.116 107.336C376.467 107.336 374.283 105.152 374.283 102.457C374.283 99.7622 376.467 97.5783 379.116 97.5783C381.764 97.5783 383.948 99.7622 383.948 102.457ZM349.982 102.457C349.982 105.152 347.798 107.336 345.149 107.336C342.501 107.336 340.317 105.152 340.317 102.457C340.317 99.7622 342.501 97.5783 345.149 97.5783C347.798 97.5783 349.982 99.7622 349.982 102.457ZM316.015 102.457C316.015 105.152 313.831 107.336 311.183 107.336C308.534 107.336 306.35 105.152 306.35 102.457C306.35 99.7622 308.534 97.5783 311.183 97.5783C313.831 97.5783 316.015 99.7622 316.015 102.457ZM282.048 102.457C282.048 105.152 279.864 107.336 277.216 107.336C274.567 107.336 272.383 105.152 272.383 102.457C272.383 99.7622 274.567 97.5783 277.216 97.5783C279.864 97.5783 282.048 99.7622 282.048 102.457ZM248.082 102.457C248.082 105.152 245.898 107.336 243.249 107.336C240.601 107.336 238.417 105.152 238.417 102.457C238.417 99.7622 240.601 97.5783 243.249 97.5783C245.898 97.5783 248.082 99.7622 248.082 102.457ZM214.115 102.457C214.115 105.152 211.931 107.336 209.283 107.336C206.634 107.336 204.45 105.152 204.45 102.457C204.45 99.7622 206.634 97.5783 209.283 97.5783C211.931 97.5783 214.115 99.7622 214.115 102.457ZM383.902 134.519C383.902 137.214 381.718 139.398 379.069 139.398C376.421 139.398 374.237 137.214 374.237 134.519C374.237 131.824 376.421 129.64 379.069 129.64C381.718 129.64 383.902 131.824 383.902 134.519ZM349.935 134.519C349.935 137.214 347.751 139.398 345.103 139.398C342.454 139.398 340.27 137.214 340.27 134.519C340.27 131.824 342.454 129.64 345.103 129.64C347.751 129.64 349.935 131.824 349.935 134.519ZM315.969 134.519C315.969 137.214 313.785 139.398 311.136 139.398C308.488 139.398 306.304 137.214 306.304 134.519C306.304 131.824 308.488 129.64 311.136 129.64C313.785 129.64 315.969 131.824 315.969 134.519ZM282.002 134.519C282.002 137.214 279.818 139.398 277.169 139.398C274.521 139.398 272.337 137.214 272.337 134.519C272.337 131.824 274.521 129.64 277.169 129.64C279.818 129.64 282.002 131.824 282.002 134.519ZM248.035 134.519C248.035 137.214 245.851 139.398 243.203 139.398C240.554 139.398 238.37 137.214 238.37 134.519C238.37 131.824 240.554 129.64 243.203 129.64C245.851 129.64 248.035 131.824 248.035 134.519ZM214.069 134.519C214.069 137.214 211.885 139.398 209.236 139.398C206.588 139.398 204.404 137.214 204.404 134.519C204.404 131.824 206.588 129.64 209.236 129.64C211.885 129.64 214.069 131.824 214.069 134.519ZM384.134 166.487C384.134 169.182 381.95 171.366 379.302 171.366C376.653 171.366 374.469 169.182 374.469 166.487C374.469 163.792 376.653 161.608 379.302 161.608C381.95 161.608 384.134 163.792 384.134 166.487ZM350.167 166.487C350.167 169.182 347.984 171.366 345.335 171.366C342.686 171.366 340.503 169.182 340.503 166.487C340.503 163.792 342.686 161.608 345.335 161.608C347.984 161.608 350.167 163.792 350.167 166.487ZM316.201 166.487C316.201 169.182 314.017 171.366 311.368 171.366C308.72 171.366 306.536 169.182 306.536 166.487C306.536 163.792 308.72 161.608 311.368 161.608C314.017 161.608 316.201 163.792 316.201 166.487ZM282.234 166.487C282.234 169.182 280.05 171.366 277.402 171.366C274.753 171.366 272.569 169.182 272.569 166.487C272.569 163.792 274.753 161.608 277.402 161.608C280.05 161.608 282.234 163.792 282.234 166.487ZM248.268 166.487C248.268 169.182 246.084 171.366 243.435 171.366C240.787 171.366 238.603 169.182 238.603 166.487C238.603 163.792 240.787 161.608 243.435 161.608C246.084 161.608 248.268 163.792 248.268 166.487ZM214.301 166.487C214.301 169.182 212.117 171.366 209.469 171.366C206.82 171.366 204.636 169.182 204.636 166.487C204.636 163.792 206.82 161.608 209.469 161.608C212.117 161.608 214.301 163.792 214.301 166.487Z" fill="white"/>
</svg>
