<svg width="432" height="396" viewBox="0 0 432 396" fill="none" xmlns="http://www.w3.org/2000/svg">
<path opacity="0.4" fill-rule="evenodd" clip-rule="evenodd" d="M9.72021 23.2873L45.2825 3.14585C49.9455 0.50484 55.6633 0.552154 60.282 3.26995L95.5062 23.9971C100.125 26.7149 102.943 31.6903 102.898 37.0491L102.56 77.9177C102.516 83.2765 99.6161 88.2046 94.9531 90.8456L59.3908 110.987C54.7277 113.628 49.01 113.581 44.3913 110.863L9.16711 90.1358C4.54842 87.418 1.73051 82.4426 1.77484 77.0838L2.11299 36.2152C2.15733 30.8564 5.05718 25.9283 9.72021 23.2873ZM1.11302 36.2069C1.16032 30.4909 4.2535 25.2342 9.2274 22.4172L44.7897 2.27571C49.7636 -0.541347 55.8626 -0.490891 60.7892 2.40809L96.0133 23.1352C100.94 26.0342 103.946 31.3413 103.898 37.0574L103.56 77.926C103.513 83.642 100.42 88.8986 95.4459 91.7157L59.8836 111.857C54.9097 114.674 48.8107 114.624 43.8841 111.725L8.65996 90.9976C3.73336 88.0986 0.727584 82.7916 0.774873 77.0755L1.11302 36.2069ZM173.999 118.001L209.562 97.8593C214.225 95.2183 219.943 95.2656 224.561 97.9834L259.785 118.711C264.404 121.428 267.222 126.404 267.178 131.763L266.84 172.631C266.795 177.99 263.895 182.918 259.232 185.559L223.67 205.701C219.007 208.342 213.289 208.294 208.671 205.576L173.446 184.849C168.828 182.131 166.01 177.156 166.054 171.797L166.392 130.929C166.437 125.57 169.336 120.642 173.999 118.001ZM165.392 130.92C165.44 125.204 168.533 119.948 173.507 117.131L209.069 96.9892C214.043 94.1721 220.142 94.2226 225.068 97.1216L260.293 117.849C265.219 120.748 268.225 126.055 268.178 131.771L267.84 172.639C267.792 178.356 264.699 183.612 259.725 186.429L224.163 206.571C219.189 209.388 213.09 209.337 208.163 206.438L172.939 185.711C168.013 182.812 165.007 177.505 165.054 171.789L165.392 130.92ZM119.996 209.776L155.558 189.635C160.221 186.994 165.939 187.041 170.557 189.759L205.782 210.486C210.4 213.204 213.218 218.179 213.174 223.538L212.836 264.406C212.791 269.765 209.892 274.693 205.229 277.334L169.666 297.476C165.003 300.117 159.285 300.069 154.667 297.352L119.443 276.625C114.824 273.907 112.006 268.931 112.05 263.573L112.388 222.704C112.433 217.345 115.333 212.417 119.996 209.776ZM111.388 222.696C111.436 216.98 114.529 211.723 119.503 208.906L155.065 188.764C160.039 185.947 166.138 185.998 171.065 188.897L206.289 209.624C211.215 212.523 214.221 217.83 214.174 223.546L213.836 264.415C213.788 270.131 210.695 275.387 205.721 278.204L170.159 298.346C165.185 301.163 159.086 301.113 154.16 298.214L118.935 277.486C114.009 274.587 111.003 269.28 111.05 263.564L111.388 222.696ZM263.565 6.08622L228.003 26.2277C223.339 28.8687 220.44 33.7968 220.395 39.1556L220.057 80.0242C220.013 85.383 222.831 90.3584 227.449 93.0762L262.674 113.803C267.292 116.521 273.01 116.568 277.673 113.927L313.235 93.786C317.898 91.145 320.798 86.2169 320.843 80.8581L321.181 39.9895C321.225 34.6307 318.407 29.6553 313.788 26.9375L278.564 6.21033C273.946 3.49254 268.228 3.44524 263.565 6.08622ZM227.51 25.3576C222.536 28.1746 219.443 33.4312 219.395 39.1473L219.057 80.0159C219.01 85.732 222.016 91.039 226.942 93.938L262.166 114.665C267.093 117.564 273.192 117.615 278.166 114.798L313.728 94.6561C318.702 91.839 321.795 86.5824 321.843 80.8664L322.181 39.9977C322.228 34.2817 319.222 28.9746 314.296 26.0756L279.071 5.34847C274.145 2.44949 268.046 2.39903 263.072 5.21609L227.51 25.3576ZM119.789 25.058L155.351 4.9165C160.014 2.27549 165.732 2.32283 170.351 5.04063L205.575 25.7678C210.194 28.4855 213.012 33.461 212.967 38.8197L212.629 79.6884C212.585 85.0471 209.685 89.9752 205.022 92.6162L169.46 112.758C164.797 115.399 159.079 115.351 154.46 112.634L119.236 91.9064C114.617 89.1886 111.799 84.2132 111.844 78.8544L112.182 37.9858C112.226 32.627 115.126 27.699 119.789 25.058ZM111.182 37.9776C111.229 32.2615 114.322 27.0049 119.296 24.1878L154.859 4.04639C159.832 1.2293 165.931 1.27976 170.858 4.17875L206.082 24.9059C211.009 27.8049 214.015 33.112 213.967 38.828L213.629 79.6966C213.582 85.4127 210.489 90.6693 205.515 93.4864L169.952 113.628C164.979 116.445 158.88 116.394 153.953 113.495L118.729 92.7683C113.802 89.8693 110.796 84.5622 110.844 78.8462L111.182 37.9776ZM65.7854 116.833L101.348 96.6919C106.011 94.0509 111.728 94.0982 116.347 96.816L151.571 117.543C156.19 120.261 159.008 125.236 158.964 130.595L158.625 171.464C158.581 176.823 155.681 181.751 151.018 184.392L115.456 204.533C110.793 207.174 105.075 207.127 100.456 204.409L65.2323 183.682C60.6136 180.964 57.7957 175.989 57.84 170.63L58.1781 129.761C58.2225 124.402 61.1223 119.474 65.7854 116.833ZM57.1782 129.753C57.2255 124.037 60.3187 118.78 65.2925 115.963L100.855 95.8217C105.829 93.0047 111.928 93.0551 116.854 95.9541L152.078 116.681C157.005 119.58 160.011 124.887 159.964 130.603L159.625 171.472C159.578 177.188 156.485 182.445 151.511 185.262L115.949 205.403C110.975 208.22 104.876 208.17 99.9493 205.271L64.7251 184.544C59.7985 181.645 56.7927 176.338 56.84 170.622L57.1782 129.753ZM210.982 284.269L175.42 304.41C170.757 307.051 167.857 311.979 167.813 317.338L167.475 358.207C167.43 363.565 170.248 368.541 174.867 371.259L210.091 391.986C214.71 394.703 220.427 394.751 225.09 392.11L260.653 371.968C265.316 369.327 268.216 364.399 268.26 359.04L268.598 318.172C268.643 312.813 265.825 307.838 261.206 305.12L225.982 284.393C221.363 281.675 215.645 281.628 210.982 284.269ZM174.927 303.54C169.953 306.357 166.86 311.614 166.813 317.33L166.475 358.198C166.427 363.914 169.433 369.221 174.36 372.12L209.584 392.848C214.51 395.746 220.609 395.797 225.583 392.98L261.146 372.838C266.12 370.021 269.213 364.765 269.26 359.049L269.598 318.18C269.645 312.464 266.64 307.157 261.713 304.258L226.489 283.531C221.562 280.632 215.463 280.581 210.489 283.398L174.927 303.54ZM264.986 192.495L229.424 212.637C224.761 215.278 221.861 220.206 221.817 225.564L221.479 266.433C221.434 271.792 224.252 276.767 228.871 279.485L264.095 300.212C268.714 302.93 274.431 302.977 279.094 300.336L314.657 280.195C319.32 277.554 322.22 272.626 322.264 267.267L322.602 226.398C322.646 221.04 319.829 216.064 315.21 213.346L279.986 192.619C275.367 189.901 269.649 189.854 264.986 192.495ZM228.931 211.766C223.957 214.583 220.864 219.84 220.817 225.556L220.479 266.425C220.431 272.141 223.437 277.448 228.364 280.347L263.588 301.074C268.514 303.973 274.613 304.023 279.587 301.206L315.15 281.065C320.123 278.248 323.217 272.991 323.264 267.275L323.602 226.407C323.649 220.691 320.644 215.383 315.717 212.484L280.493 191.757C275.566 188.858 269.467 188.808 264.493 191.625L228.931 211.766ZM283.427 120.862L318.989 100.72C323.652 98.0792 329.37 98.1265 333.989 100.844L369.213 121.571C373.831 124.289 376.649 129.265 376.605 134.623L376.267 175.492C376.223 180.851 373.323 185.779 368.66 188.42L333.097 208.561C328.434 211.202 322.717 211.155 318.098 208.437L282.874 187.71C278.255 184.992 275.437 180.017 275.481 174.658L275.82 133.79C275.864 128.431 278.764 123.503 283.427 120.862ZM274.82 133.781C274.867 128.065 277.96 122.809 282.934 119.992L318.496 99.8501C323.47 97.033 329.569 97.0835 334.496 99.9825L369.72 120.71C374.647 123.609 377.652 128.916 377.605 134.632L377.267 175.5C377.22 181.216 374.126 186.473 369.152 189.29L333.59 209.432C328.616 212.249 322.517 212.198 317.591 209.299L282.367 188.572C277.44 185.673 274.434 180.366 274.481 174.65L274.82 133.781ZM372.993 8.94668L337.431 29.0882C332.768 31.7292 329.868 36.6572 329.823 42.016L329.485 82.8846C329.441 88.2434 332.259 93.2188 336.878 95.9366L372.102 116.664C376.72 119.382 382.438 119.429 387.101 116.788L422.664 96.6464C427.327 94.0054 430.226 89.0773 430.271 83.7185L430.609 42.8499C430.653 37.4911 427.835 32.5157 423.217 29.7979L387.993 9.07079C383.374 6.35299 377.656 6.30569 372.993 8.94668ZM336.938 28.218C331.964 31.0351 328.871 36.2917 328.824 42.0078L328.485 82.8763C328.438 88.5924 331.444 93.8995 336.37 96.7985L371.595 117.526C376.521 120.425 382.62 120.475 387.594 117.658L423.156 97.5165C428.13 94.6995 431.224 89.4428 431.271 83.7268L431.609 42.8582C431.656 37.1421 428.65 31.8351 423.724 28.9361L388.5 8.20893C383.573 5.30994 377.474 5.25948 372.5 8.07654L336.938 28.218Z" fill="url(#paint0_radial_121_154)" fill-opacity="0.6"/>
<defs>
<radialGradient id="paint0_radial_121_154" cx="0" cy="0" r="1" gradientUnits="userSpaceOnUse" gradientTransform="translate(2.47469 -65.0096) rotate(41.8842) scale(601.449 1337.16)">
<stop stop-color="#EAD1CA"/>
<stop offset="0.255208" stop-color="#DED1CC" stop-opacity="0.08"/>
<stop offset="0.666667" stop-color="#CBD1CF"/>
<stop offset="1" stop-color="#B5D0E7" stop-opacity="0.24"/>
</radialGradient>
</defs>
</svg>
